<svg xmlns="http://www.w3.org/2000/svg" version="1.1" xmlns:xlink="http://www.w3.org/1999/xlink" width="60" height="60" x="0" y="0" viewBox="0 0 74 74" style="enable-background:new 0 0 512 512" xml:space="preserve" class=""><g><path d="m24.68 34.32-.42.42c-.63.63-.17 1.71.71 1.71.6 0 .82-.47 1.13-.72.93-.94-.49-2.35-1.42-1.41zM9.1 49.9c-.94.94.48 2.35 1.41 1.41 10.82-11.37 13.41-12.16 12.08-13.49S20.52 39.03 9.1 49.9z" fill="#ff1749" opacity="1" data-original="#000000"></path><path d="m56.81 25.09 7.56-7.56c3.28-3.28-4.99-11.55-8.27-8.27l-7.56 7.56c-1.97-.82-4.42-1.12-5.89.42l-4.81 4.81c-3-.96-6.42-1.04-8.62 1.21L5.84 46.63c-4.37 4.37-.28 12.55 4.17 17 2.75 2.75 5.99 4.73 9.1 5.56 1.07.28 2.08.43 3.03.43 1.98 0 3.65-.62 4.86-1.83l23.33-23.33c.02-.02.05-.04.08-.07 1.91-1.91 2.32-5.03 1.17-8.59 2.17-2.18 4.68-4.66 4.91-4.93 1.19-1.27 1.3-3.39.32-5.78zm-4.02-.05c-3-.96-4.91-4.74-4.2-5.44l7.03-7.03c.76 2.32 3.17 4.7 5.44 5.44-7.5 7.18-6.66 7.54-8.27 7.03zm8.92-8.92c-2.96-.95-5.61-5.58-3.73-5.58 3.15 0 7.37 6.75 3.73 5.58zm-14.69 2.27c-1.18 1.46-.45 4.15 1.81 6.4 1.71 1.71 4.61 3.26 6.41 1.83 1.43 4.7-3.31 4.05-7.17.79-4.62-3.93-6.61-10.74-1.05-9.02zm.78 18.34c-.56.56-1.67.63-3.04.19-5.6-1.8-9.84-9.13-7.88-11.1l4.84-4.84c.74 4.81 6.38 10.2 10.9 10.92zm-2.07 9.49L25.58 66.37c-1.26 1.26-3.38 1.57-5.96.88-2.78-.74-5.69-2.53-8.2-5.04-3.49-3.49-7.59-10.74-4.17-14.17l20.16-20.15c-.2 8.2 10.12 18.5 18.32 18.33zm3.25-3.25c-.35.35-.76.62-1.23.82-8.17 3.46-23.02-13.22-17.1-19.14.1-.05 1.51-1.92 5.56-.97l-.74.74c-3.6 3.6 2.4 12.4 8.68 14.42 4.06 1.3 5.28-1.03 5.8-1.42.95 4.06-1.02 5.65-.97 5.55zM61.65 34.09c-.63-1.16-2.39-.21-1.76.95 2.02 3.41 2.33 5.39 3.67 4.67 1.49-.81-.58-2.64-1.91-5.62zM64.65 29.17c-1.27-.38-1.84 1.54-.57 1.92 4.83 1.42 4.67 1.42 4.94 1.42.43 0 .83-.28.96-.72.48-1.62-2.27-1.45-5.33-2.62zM64.25 25.33c2.76-1.78 5.48-2.17 4.67-3.67-.81-1.49-2.6.56-5.62 1.91-1.16.63-.22 2.39.95 1.76zM48.66 11.04c1.29 0 1-1.6 2.34-5.36a.988.988 0 0 0-.67-1.24.988.988 0 0 0-1.24.67L47.7 9.75c-.19.64.29 1.29.96 1.29zM42.98 11.63c.75 0 1.24-.81.88-1.48-1.79-2.77-2.18-5.48-3.67-4.67-.49.26-.67.87-.4 1.36 2.23 3.77 2.15 4.79 3.19 4.79zM34.44 14.63c4.83 1.42 4.67 1.42 4.94 1.42.43 0 .83-.28.96-.72a.988.988 0 0 0-.67-1.24c-3.22-.7-5.41-2.33-5.89-.71-.17.54.13 1.1.66 1.25z" fill="#ff1749" opacity="1" data-original="#000000"></path></g></svg>