<svg xmlns="http://www.w3.org/2000/svg" version="1.1" xmlns:xlink="http://www.w3.org/1999/xlink" width="60" height="60" x="0" y="0" viewBox="0 0 64 64" style="enable-background:new 0 0 512 512" xml:space="preserve" class=""><g><path d="M59 2H5a3 3 0 0 0-3 3v34a3 3 0 0 0 3 3h16v4H8a1 1 0 0 0-1 1v4a1 1 0 0 0 1 1h17v7a3 3 0 0 0 3 3h8a3 3 0 0 0 3-3v-7h16a1 1 0 0 0 1-1v-4a1 1 0 0 0-1-1H43v-4h16a3 3 0 0 0 3-3V5a3 3 0 0 0-3-3zM25 50H9v-2h16zm0-4h-2v-4h2zm.18-6H5a1 1 0 0 1-1-1v-1h24a3 3 0 0 0-2.82 2zM37 59a1 1 0 0 1-1 1h-8a1 1 0 0 1-1-1V41a1 1 0 0 1 1-1h8a1 1 0 0 1 1 1zm17-11v2H39v-2zm-15-2v-4h2v4zm21-7a1 1 0 0 1-1 1H38.82A3 3 0 0 0 36 38h-4a1 1 0 0 0 .89-.55L34.62 34H60zm-28-7v-4h4v4zm10 0v-4h4v4zm10 0v-4h4v4zm8 0h-2v-5a1 1 0 0 0-1-1h-6a1 1 0 0 0-1 1v5h-2v-5a1 1 0 0 0-1-1h-6a1 1 0 0 0-1 1v5h-2v-5a1 1 0 0 0-1-1h-6a1 1 0 0 0-1 1v6a1 1 0 0 0 1 1h1.38l-1 2H4V5a1 1 0 0 1 1-1h54a1 1 0 0 1 1 1z" fill="#ff1749" opacity="1" data-original="#000000" class=""></path><path d="M56 36h2v2h-2zM52 36h2v2h-2zM48 36h2v2h-2zM17 6H7a1 1 0 0 0-1 1v16a1 1 0 0 0 1 1h10a1 1 0 0 0 1-1V7a1 1 0 0 0-1-1zm-1 16H8V8h8zM27 6h-6a1 1 0 0 0-1 1v6a1 1 0 0 0 1 1h6a1 1 0 0 0 1-1V7a1 1 0 0 0-1-1zm-1 6h-4V8h4zM37 6h-6a1 1 0 0 0-1 1v6a1 1 0 0 0 1 1h6a1 1 0 0 0 1-1V7a1 1 0 0 0-1-1zm-1 6h-4V8h4zM47 6h-6a1 1 0 0 0-1 1v6a1 1 0 0 0 1 1h6a1 1 0 0 0 1-1V7a1 1 0 0 0-1-1zm-1 6h-4V8h4zM57 6h-6a1 1 0 0 0-1 1v6a1 1 0 0 0 1 1h6a1 1 0 0 0 1-1V7a1 1 0 0 0-1-1zm-1 6h-4V8h4zM27 16h-6a1 1 0 0 0-1 1v6a1 1 0 0 0 1 1h6a1 1 0 0 0 1-1v-6a1 1 0 0 0-1-1zm-1 6h-4v-4h4zM27 26h-6a1 1 0 0 0-1 1v6a1 1 0 0 0 1 1h6a1 1 0 0 0 1-1v-6a1 1 0 0 0-1-1zm-1 6h-4v-4h4zM17 26H7a1 1 0 0 0-1 1v6a1 1 0 0 0 1 1h10a1 1 0 0 0 1-1v-6a1 1 0 0 0-1-1zm-1 6H8v-4h8zM37 16h-6a1 1 0 0 0-1 1v6a1 1 0 0 0 1 1h6a1 1 0 0 0 1-1v-6a1 1 0 0 0-1-1zm-1 6h-4v-4h4zM47 16h-6a1 1 0 0 0-1 1v6a1 1 0 0 0 1 1h6a1 1 0 0 0 1-1v-6a1 1 0 0 0-1-1zm-1 6h-4v-4h4zM57 16h-6a1 1 0 0 0-1 1v6a1 1 0 0 0 1 1h6a1 1 0 0 0 1-1v-6a1 1 0 0 0-1-1zm-1 6h-4v-4h4zM32 52a3 3 0 1 0 3 3 3 3 0 0 0-3-3zm0 4a1 1 0 1 1 1-1 1 1 0 0 1-1 1zM29 42h2v2h-2zM33 42h2v2h-2zM29 45h2v2h-2zM33 45h2v2h-2zM29 48h2v2h-2zM33 48h2v2h-2z" fill="#ff1749" opacity="1" data-original="#000000" class=""></path></g></svg>