<svg xmlns="http://www.w3.org/2000/svg" version="1.1" xmlns:xlink="http://www.w3.org/1999/xlink" width="60" height="60" x="0" y="0" viewBox="0 0 512 512" style="enable-background:new 0 0 512 512" xml:space="preserve" class=""><g><path d="M6.918 59.774h5.917v73.602a6.918 6.918 0 0 0 6.919 6.919h100.784a6.918 6.918 0 0 0 6.919-6.919V59.774h5.919a6.92 6.92 0 0 0 4.067-12.516L74.216 1.321a6.924 6.924 0 0 0-8.135 0L2.851 47.258a6.922 6.922 0 0 0-2.514 7.734 6.921 6.921 0 0 0 6.581 4.782zm63.23 23.646c-3.257 0-6.885-4.608-6.885-11.218 0-5.218 2.059-7.444 6.885-7.444 4.822 0 6.881 2.225 6.881 7.444 0 6.61-3.626 11.218-6.881 11.218zm16.009 19.381c2.329.577 7.741 2.286 7.741 5.698v17.957H46.396v-17.957c0-3.349 5.453-5.11 7.8-5.714 10.542-2.709 20.995-2.702 31.961.016zM70.148 15.47l45.185 32.829a6.88 6.88 0 0 0-1.714 4.556v73.602h-5.883V108.5c0-9.146-6.822-16.297-18.25-19.131-1.229-.305-2.458-.552-3.686-.8 3.148-4.396 5.067-10.11 5.067-16.367 0-12.73-8.327-21.282-20.719-21.282-12.394 0-20.723 8.552-20.723 21.282 0 6.247 1.913 11.954 5.053 16.347a76.893 76.893 0 0 0-3.726.836c-11.563 2.968-18.194 9.937-18.194 19.115v17.957h-5.885V52.855a6.89 6.89 0 0 0-1.712-4.556zm192.771 349.523v54.694c0 16.038-13.047 29.086-29.086 29.086h-79.111c-3.822 0-6.919-3.097-6.919-6.919s3.097-6.919 6.919-6.919h79.111c8.408 0 15.248-6.84 15.248-15.248v-54.694c0-3.822 3.097-6.919 6.919-6.919s6.919 3.097 6.919 6.919zm156.768-102.075h-55.93c-3.822 0-6.919-3.097-6.919-6.919s3.097-6.919 6.919-6.919h55.93c16.038 0 29.086 13.047 29.086 29.086v79.111c0 3.822-3.097 6.919-6.919 6.919s-6.919-3.097-6.919-6.919v-79.111c0-8.407-6.84-15.248-15.248-15.248zM249.081 149.209V92.312c0-16.038 13.047-29.086 29.086-29.086h79.111c3.822 0 6.919 3.097 6.919 6.919s-3.097 6.919-6.919 6.919h-79.111c-8.408 0-15.248 6.84-15.248 15.248v56.897c0 3.822-3.097 6.919-6.919 6.919s-6.919-3.097-6.919-6.919zM145.808 262.918H92.313c-16.038 0-29.086-13.047-29.086-29.086v-79.111c0-3.822 3.097-6.919 6.919-6.919s6.919 3.097 6.919 6.919v79.111c0 8.408 6.84 15.248 15.248 15.248h53.496a6.919 6.919 0 1 1-.001 13.838zM74.216 373.027a6.924 6.924 0 0 0-8.135 0l-63.23 45.939A6.922 6.922 0 0 0 .337 426.7a6.922 6.922 0 0 0 6.581 4.782h5.917v73.599A6.918 6.918 0 0 0 19.754 512h100.784a6.918 6.918 0 0 0 6.919-6.919v-73.599h5.919a6.92 6.92 0 0 0 4.067-12.516zm-4.068 82.101c-3.257 0-6.885-4.608-6.885-11.221 0-5.218 2.059-7.444 6.885-7.444 4.822 0 6.881 2.225 6.881 7.444 0 6.613-3.626 11.221-6.881 11.221zm16.007 19.377c2.329.579 7.743 2.291 7.743 5.703v17.955H46.396v-17.955c0-3.349 5.455-5.113 7.8-5.716 10.542-2.713 20.993-2.701 31.959.013zm27.464-49.942v73.599h-5.883v-17.955c0-9.144-6.822-16.297-18.25-19.133-1.229-.305-2.457-.552-3.685-.799 3.147-4.396 5.066-10.11 5.066-16.367 0-12.73-8.327-21.282-20.719-21.282-12.394 0-20.723 8.552-20.723 21.282 0 6.247 1.913 11.954 5.052 16.347-1.245.256-2.49.517-3.727.835-11.561 2.973-18.191 9.941-18.191 19.117v17.955h-5.885v-73.599a6.89 6.89 0 0 0-1.712-4.556l45.187-32.831 45.185 32.829a6.885 6.885 0 0 0-1.715 4.558zm332.303-51.536a6.924 6.924 0 0 0-8.135 0l-63.23 45.939a6.922 6.922 0 0 0-2.514 7.734 6.922 6.922 0 0 0 6.581 4.782h5.919v73.599a6.918 6.918 0 0 0 6.919 6.919h100.784a6.918 6.918 0 0 0 6.919-6.919v-73.599h5.917a6.92 6.92 0 0 0 4.067-12.516zm-4.068 82.101c-3.255 0-6.883-4.608-6.883-11.221 0-5.218 2.059-7.444 6.883-7.444s6.883 2.225 6.883 7.444c0 6.613-3.628 11.221-6.883 11.221zm16.007 19.377c2.329.579 7.743 2.291 7.743 5.703v17.955h-47.5v-17.955c0-3.349 5.455-5.113 7.8-5.716 10.533-2.713 20.986-2.704 31.957.013zm27.466-49.942v73.599h-5.885v-17.955c0-9.144-6.822-16.297-18.25-19.133a85.651 85.651 0 0 0-3.683-.799c3.147-4.396 5.066-10.11 5.066-16.368 0-12.73-8.327-21.282-20.721-21.282s-20.721 8.552-20.721 21.282c0 6.247 1.912 11.953 5.05 16.346a78.334 78.334 0 0 0-3.725.836c-11.561 2.973-18.191 9.941-18.191 19.117v17.955h-5.885v-73.599c0-1.745-.646-3.34-1.714-4.559l45.187-32.829 45.185 32.831a6.894 6.894 0 0 0-1.713 4.558zM378.624 59.774h5.919v73.602a6.918 6.918 0 0 0 6.919 6.919h100.784a6.918 6.918 0 0 0 6.919-6.919V59.774h5.917a6.92 6.92 0 0 0 4.067-12.516L445.922 1.321a6.924 6.924 0 0 0-8.135 0l-63.23 45.937a6.92 6.92 0 0 0 4.067 12.516zm63.23 23.646c-3.255 0-6.883-4.608-6.883-11.218 0-5.218 2.059-7.444 6.883-7.444s6.883 2.225 6.883 7.444c0 6.61-3.628 11.218-6.883 11.218zm16.009 19.381c2.329.577 7.741 2.286 7.741 5.698v17.957h-47.5v-17.957c0-3.349 5.453-5.11 7.8-5.714 10.538-2.714 20.993-2.707 31.959.016zM441.854 15.47l45.185 32.829a6.894 6.894 0 0 0-1.712 4.556v73.602h-5.885V108.5c0-9.146-6.822-16.297-18.25-19.131-1.229-.305-2.456-.552-3.684-.8 3.148-4.396 5.067-10.11 5.067-16.367 0-12.73-8.327-21.282-20.721-21.282s-20.721 8.552-20.721 21.282c0 6.247 1.913 11.954 5.052 16.347-1.244.256-2.489.517-3.725.836-11.563 2.968-18.194 9.937-18.194 19.115v17.957h-5.885V52.855a6.88 6.88 0 0 0-1.714-4.556zM260.068 174.639a6.924 6.924 0 0 0-8.135 0l-75.764 55.045a6.922 6.922 0 0 0-2.514 7.734 6.922 6.922 0 0 0 6.581 4.782h8.462v89.563a6.918 6.918 0 0 0 6.919 6.919h120.766a6.918 6.918 0 0 0 6.919-6.919V242.2h8.462a6.92 6.92 0 0 0 4.067-12.516zM256 273.277c-5.124 0-9.617-6.923-9.617-14.815 0-7.02 3.056-10.291 9.617-10.291 6.563 0 9.619 3.27 9.619 10.291 0 7.891-4.495 14.815-9.619 14.815zm19.511 20.515c3.854.957 10.32 3.291 10.32 8.164v22.887h-59.66v-22.887c0-4.795 6.5-7.182 10.374-8.178 12.854-3.301 25.599-3.296 38.966.014zm33.953-58.511v89.563h-9.795v-22.887c0-10.439-7.59-18.309-20.827-21.595a99.773 99.773 0 0 0-6.516-1.368c4.39-5.21 7.131-12.483 7.131-20.533 0-14.658-9.207-24.128-23.457-24.128-14.248 0-23.455 9.471-23.455 24.128 0 8.037 2.731 15.3 7.109 20.508a91.099 91.099 0 0 0-6.555 1.409c-13.196 3.394-20.766 11.259-20.766 21.579v22.887h-9.797v-89.563a6.909 6.909 0 0 0-2.838-5.588L256 188.788l56.302 40.905a6.909 6.909 0 0 0-2.838 5.588z" fill="#ff1749" opacity="1" data-original="#000000" class=""></path></g></svg>