<svg xmlns="http://www.w3.org/2000/svg" version="1.1" xmlns:xlink="http://www.w3.org/1999/xlink" width="60" height="60" x="0" y="0" viewBox="0 0 511.975 511.975" style="enable-background:new 0 0 512 512" xml:space="preserve" class=""><g><path d="M163.394 161.193c-9.937-.098-18.005 7.969-18.103 17.906s7.969 18.005 17.906 18.103 18.005-7.969 18.103-17.906v-.098c.001-9.937-7.969-17.907-17.906-18.005zm0 24.104c-3.443.098-6.198-2.656-6.297-6.1-.098-3.444 2.656-6.198 6.1-6.297 3.443-.098 6.198 2.656 6.297 6.1v.197a6.262 6.262 0 0 1-6.1 6.1zM340.784 161.193c-9.937 0-18.005 8.068-18.005 18.005s8.068 18.005 18.005 18.005 18.005-8.068 18.005-18.005-8.068-18.005-18.005-18.005zm0 24.104c-3.444.394-6.493-1.968-6.887-5.411s1.968-6.493 5.411-6.887a4.25 4.25 0 0 1 1.574 0c3.444-.394 6.493 1.968 6.887 5.411.394 3.444-1.968 6.493-5.411 6.887a4.208 4.208 0 0 1-1.574 0zM163.394 332.384c-9.937-.098-18.005 7.969-18.103 17.906s7.969 18.005 17.906 18.103 18.005-7.969 18.103-17.906v-.197c-.098-9.838-8.067-17.807-17.906-17.906zm0 24.105c-3.443.098-6.198-2.656-6.297-6.1-.098-3.444 2.656-6.198 6.1-6.297 3.443-.098 6.198 2.656 6.297 6.1v.098c0 3.346-2.755 6.1-6.1 6.199z" fill="#ff1749" opacity="1" data-original="#000000" class=""></path><path d="M484.427 312.904h-.098c-12.889.098-24.006 8.953-26.859 21.547v-.394l-21.743.394V291.26h-39.354v-41.42l58.54-.394c1.181 5.116 3.739 9.839 7.379 13.577 5.116 5.214 12.2 8.068 19.48 8.068h.098a27.795 27.795 0 0 0 19.48-7.969c10.822-10.822 10.822-28.237.098-39.059-5.116-5.214-12.101-8.068-19.48-8.166h-.098c-12.987.098-24.203 9.051-26.958 21.743l-58.54.394v-40.24h39.354v-43.388l21.645-.394c2.853 12.593 13.971 21.645 26.958 21.645h.098c15.25 0 27.548-12.298 27.548-27.548 0-7.379-2.952-14.364-8.166-19.579-5.116-5.214-12.2-8.068-19.48-8.068-12.987.098-24.105 9.15-26.958 21.743l-33.451.59v43.191h-27.548v-21.842c0-23.317-18.89-42.208-42.208-42.208h-45.749V94.291h43.487l-.59-33.254a27.817 27.817 0 0 0 14.069-7.576c5.214-5.116 8.068-12.2 8.068-19.48.098-15.25-12.2-27.548-27.45-27.646h-.099c-15.25 0-27.548 12.298-27.646 27.548 0 7.281 2.853 14.364 8.068 19.48 3.64 3.739 8.363 6.395 13.479 7.477h-.295l.394 21.645h-43.29v39.453h-41.322l-.394-58.54c5.116-1.181 9.839-3.739 13.479-7.477 10.822-10.724 10.921-28.138.197-38.961-5.214-5.214-12.2-8.166-19.579-8.166h-.098c-15.25.098-27.548 12.495-27.548 27.745 0 7.182 2.853 14.069 7.969 19.284 3.739 3.739 8.56 6.395 13.774 7.576l.394 58.54h-40.24V82.484h-43.487l-.394-21.645c12.692-2.755 21.743-13.971 21.743-26.958-.098-7.281-2.952-14.266-8.166-19.48-5.116-5.214-12.2-8.068-19.48-8.068h-.098c-15.25.098-27.548 12.593-27.45 27.843.098 7.182 2.952 14.168 8.068 19.284a27.163 27.163 0 0 0 13.577 7.379l.59 33.451h43.29v27.646h-33.648c-23.317 0-42.208 18.89-42.208 42.208v21.645H87.932V142.5l-33.451-.59c-2.755-12.593-13.971-21.645-26.859-21.645h-.098c-15.25.885-26.859 13.971-25.974 29.221.787 13.971 12.003 25.088 25.974 25.974 12.987 0 24.203-9.051 26.958-21.743l21.645.394v43.487h39.453v40.24l-58.54-.394c-2.755-12.692-13.971-21.743-26.958-21.743h-.098c-15.25 0-27.548 12.298-27.548 27.548v.098c.098 15.25 12.397 27.45 27.646 27.548 12.889-.098 24.105-9.052 26.859-21.645l58.638.394v41.322H76.126v43.29l-21.645-.394v.394c-2.853-12.593-13.971-21.645-26.958-21.645-7.281.098-14.266 2.952-19.48 8.166-10.724 10.724-10.724 28.237 0 38.961a27.477 27.477 0 0 0 19.48 8.068h.098c13.085 0 24.4-9.248 27.056-22.137l33.254.59V302.77h27.646v57.753c0 23.317 18.89 42.208 42.208 42.208h25.088v53.325c.098 9.839 8.068 17.808 17.906 17.906h70.641c1.673 7.281 5.018 14.069 9.74 19.874v11.806h11.806v-16.529s-6.395-7.379-9.347-15.151h28.63c8.264 12.692 26.761 21.055 26.761 21.055l4.919-10.724s-12.889-5.805-18.693-12.593c-6.395-8.461-8.855-15.939-9.74-19.087-4.132-13.282-.394-34.042-.295-34.238l.492-2.558-28.335-39.551h-.098a8.68 8.68 0 0 1-1.574-6.592c.492-2.656 1.968-4.919 4.132-6.493 4.624-3.247 11.118-2.46 14.463 1.673l34.238 39.945s13.577 6.002 18.595 19.579l11.118-4.132c-3.837-10.527-11.61-19.284-21.645-24.203l-12.101-14.168V335.83l38.174 41.716c.885 1.279 1.377 2.755 1.377 4.329v123.769h11.806V388.366c6.789-7.674 10.527-17.611 10.527-27.843v-57.457h27.548v43.388l33.353-.59a27.783 27.783 0 0 0 27.056 22.235c15.25.098 27.548-12.2 27.646-27.45 0-7.379-2.853-14.364-8.068-19.579a27.218 27.218 0 0 0-19.478-8.166zm-2.558-85.202h.098c8.756.098 15.742 7.084 15.742 15.84 0 4.231-1.673 8.264-4.723 11.216-2.952 2.952-6.985 4.526-11.118 4.526a15.859 15.859 0 0 1-11.216-4.624c-6.1-6.198-6.1-16.234.197-22.432 2.953-2.854 6.888-4.526 11.02-4.526zm2.46-95.435c4.132 0 8.166 1.673 11.118 4.624 3.05 2.952 4.723 6.887 4.723 11.118 0 8.756-6.985 15.742-15.742 15.84h-.098c-8.756-.689-15.25-8.363-14.561-17.021.589-7.772 6.787-13.97 14.56-14.561zM330.06 33.882c.098-8.756 7.084-15.742 15.84-15.742 8.756.689 15.25 8.363 14.561 17.021-.59 7.772-6.789 13.971-14.561 14.561h-.098c-4.132 0-8.166-1.673-11.118-4.624a15.86 15.86 0 0 1-4.624-11.216zm-96.91 2.459c0-8.658 7.084-15.742 15.742-15.742h.098c8.756-.689 16.332 5.903 17.021 14.561.689 8.756-5.903 16.332-14.561 17.021-.787.098-1.673.098-2.46 0-8.658.098-15.643-6.887-15.742-15.545-.098-.098-.098-.196-.098-.295zm-95.434-2.361c-.098-8.658 6.789-15.742 15.447-15.84h.295c8.658.098 15.742 7.084 15.84 15.742 0 4.231-1.673 8.264-4.624 11.216a15.855 15.855 0 0 1-11.216 4.624c-8.659 0-15.742-7.084-15.742-15.742zM27.523 163.653c-4.231 0-8.166-1.771-11.118-4.723-3.05-2.952-4.624-6.887-4.624-11.118s1.673-8.264 4.624-11.216c2.952-2.952 6.985-4.526 11.118-4.526h.098c8.756.689 15.25 8.363 14.463 17.119-.59 7.773-6.788 13.873-14.561 14.464zm2.558 95.434c-8.756 0-15.84-7.182-15.742-15.938 0-4.132 1.673-8.068 4.526-11.019 2.952-2.952 6.985-4.624 11.118-4.624h.098c8.658 0 15.742 7.084 15.742 15.742-.098 8.657-7.084 15.74-15.742 15.839zm-2.459 96.91c-4.231.098-8.264-1.574-11.216-4.526s-4.624-6.985-4.624-11.216 1.574-8.166 4.624-11.118c2.952-3.05 6.887-4.723 11.118-4.723 8.756.689 15.25 8.264 14.561 17.021-.591 7.773-6.691 13.972-14.463 14.562zm285.811 1.279c-5.903-7.084-15.545-9.839-24.301-6.887 7.674-7.969 11.905-18.595 11.905-29.614-.098-15.545-8.461-29.811-21.94-37.387l-5.805 10.232c15.053 8.363 20.464 27.351 12.101 42.404s-27.351 20.464-42.404 12.101c-9.937-5.51-16.037-16.037-16.037-27.351 0-10.626 5.411-20.563 14.463-26.269l-6.297-10.035c-19.874 12.987-25.482 39.551-12.593 59.523 11.806 18.201 35.419 24.695 54.899 15.151a20.952 20.952 0 0 0-3.443 8.56 20.261 20.261 0 0 0 3.837 15.447l25.384 35.517c-.984 6.592-3.05 24.301.984 37.485.689 2.066 1.377 4.132 2.066 6.002h-105.47c-3.345 0-6.1-2.755-6.1-6.1V238.032c0-3.345 2.755-6.1 6.1-6.1h21.055l8.855 12.889c2.263 3.345 6.1 5.411 10.134 5.411h35.812c4.034 0 7.772-1.968 10.035-5.313l9.051-12.987h20.858c3.345 0 6.1 2.755 6.1 6.1v130.164zm-77.332-125.344h45.258l-4.329 6.198c-.098.197-.197.295-.394.295h-35.812c-.197 0-.295-.098-.394-.295zm98.386 86.383v-80.283c.098-9.839-7.871-17.808-17.709-17.906H200.781a17.845 17.845 0 0 0-17.906 17.906v152.892h-25.088c-16.824 0-30.401-13.577-30.401-30.401V164.144c0-16.824 13.577-30.401 30.401-30.401h196.378c16.824 0 30.401 13.577 30.401 30.401v196.378c0 3.64-.689 7.281-1.968 10.724zm160.96 33.353c-2.952 2.952-6.985 4.624-11.118 4.624-8.756-.689-15.25-8.363-14.561-17.021.59-7.772 6.789-13.971 14.561-14.561h.098c4.132 0 8.166 1.673 11.118 4.624s4.624 6.985 4.624 11.216-1.672 8.166-4.722 11.118z" fill="#ff1749" opacity="1" data-original="#000000" class=""></path><path d="M242.595 427.523h27.548v11.806h-27.548zM279.391 202.417c-12.298-9.642-29.811-9.543-42.601.394l.295.295-.197.197 7.182 9.347c8.56-6.592 20.071-6.789 28.04-.492l7.281-9.248-.295-.197z" fill="#ff1749" opacity="1" data-original="#000000" class=""></path><path d="M297.002 183.723c-20.366-20.956-54.604-20.759-76.446.492l.197.197a.212.212 0 0 1-.197.197l8.264 8.56c8.166-8.068 19.087-12.692 30.5-12.79 11.019-.098 21.546 4.231 29.221 12.101l8.56-8.264-.295-.295zM252.138 274.14h11.806v30.401h-11.806zM252.138 318.118h11.806v14.069h-11.806z" fill="#ff1749" opacity="1" data-original="#000000" class=""></path><path d="m201.47 167.686 8.264 8.461c13.085-12.987 30.795-20.267 49.193-20.464 17.808-.295 34.927 6.69 47.324 19.48l8.461-8.264c-14.659-15.053-34.829-23.416-55.883-23.022-21.449.197-42.011 8.756-57.359 23.809z" fill="#ff1749" opacity="1" data-original="#000000" class=""></path></g></svg>