<svg xmlns="http://www.w3.org/2000/svg" version="1.1" xmlns:xlink="http://www.w3.org/1999/xlink" width="80" height="80" x="0" y="0" viewBox="0 0 512 512" style="enable-background:new 0 0 512 512" xml:space="preserve" class=""><g><path d="M484.446 333.955h-31.01l-8.34-252.834a21.189 21.189 0 0 0-21.264-20.575 21.189 21.189 0 0 0-21.265 20.575l-8.34 252.834h-54.384a7.515 7.515 0 1 0 0 15.03h144.602c6.906 0 12.524 5.618 12.524 12.524V423.9c0 6.906-5.618 12.525-12.524 12.525h-315.47c-4.151 0-7.515 3.364-7.515 7.515s3.364 7.515 7.515 7.515h315.472c15.193 0 27.554-12.361 27.554-27.554V361.51c-.001-15.194-12.362-27.555-27.555-27.555zM417.589 81.616a6.222 6.222 0 0 1 6.244-6.041 6.222 6.222 0 0 1 6.243 6.041l8.323 252.339h-29.133z" fill="#ff1749" opacity="1" data-original="#000000" class=""></path><path d="M138.916 436.425H27.554c-6.906 0-12.524-5.618-12.524-12.525v-62.391c0-6.906 5.618-12.524 12.524-12.524h282.232a7.515 7.515 0 1 0 0-15.03H117.778l-8.34-252.834a21.189 21.189 0 0 0-21.264-20.575 21.189 21.189 0 0 0-21.265 20.575L63.114 196.17a7.514 7.514 0 0 0 7.263 7.758c4.126.106 7.621-3.115 7.758-7.263L81.93 81.616a6.222 6.222 0 0 1 6.244-6.041 6.222 6.222 0 0 1 6.243 6.041l8.323 252.339H73.607l3.537-107.254a7.514 7.514 0 0 0-7.263-7.758c-4.143-.131-7.622 3.115-7.758 7.263l-3.554 107.749H27.554C12.361 333.955 0 346.316 0 361.509V423.9c0 15.193 12.361 27.554 27.554 27.554h111.362a7.515 7.515 0 1 0 0-15.029z" fill="#ff1749" opacity="1" data-original="#000000" class=""></path><path d="M58.241 401.189a7.515 7.515 0 1 0 0 15.03h24.006a7.515 7.515 0 1 0 0-15.03zM138.916 401.189h-24.007a7.515 7.515 0 1 0 0 15.03h24.007a7.515 7.515 0 1 0 0-15.03zM171.578 401.189a7.515 7.515 0 1 0 0 15.03h24.006a7.515 7.515 0 1 0 0-15.03zM228.248 401.189a7.515 7.515 0 1 0 0 15.03h24.006a7.515 7.515 0 1 0 0-15.03zM398.135 416.218a7.515 7.515 0 1 0 0-15.03h-24.006a7.515 7.515 0 1 0 0 15.03zM454.032 416.218a7.515 7.515 0 1 0 0-15.03h-24.006a7.515 7.515 0 1 0 0 15.03zM164.005 184.136c50.728-50.73 133.271-50.728 183.999 0 1.468 1.467 3.391 2.201 5.314 2.201s3.846-.734 5.314-2.201a7.515 7.515 0 0 0 0-10.627c-56.589-56.589-148.666-56.59-205.255 0a7.515 7.515 0 0 0 10.628 10.627z" fill="#ff1749" opacity="1" data-original="#000000" class=""></path><path d="M330.129 212.639a7.515 7.515 0 0 0 0-10.627c-40.831-40.83-107.242-40.871-148.125-.125a7.517 7.517 0 1 0 10.537 10.718c35.017-34.98 91.959-34.966 126.96.034a7.517 7.517 0 0 0 10.628 0z" fill="#ff1749" opacity="1" data-original="#000000" class=""></path><path d="M296.847 242.807a7.515 7.515 0 0 0 5.314-12.828c-12.329-12.329-28.721-19.119-46.158-19.119-17.435 0-33.828 6.79-46.158 19.119a7.515 7.515 0 0 0 10.628 10.627c9.49-9.49 22.109-14.717 35.529-14.717 13.422 0 26.039 5.227 35.529 14.717a7.498 7.498 0 0 0 5.316 2.201z" fill="#ff1749" opacity="1" data-original="#000000" class=""></path><path d="M234.347 254.425a7.519 7.519 0 0 0-2.23 5.343c-.093 6.659 8.347 10.031 12.872 5.27a15.533 15.533 0 0 1 11.015-4.539c4.177 0 8.104 1.627 11.057 4.58 7.28 6.791 17.417-3.354 10.628-10.627-11.949-11.949-31.383-11.957-43.342-.027z" fill="#ff1749" opacity="1" data-original="#000000" class=""></path></g></svg>