<svg xmlns="http://www.w3.org/2000/svg" version="1.1" xmlns:xlink="http://www.w3.org/1999/xlink" width="80" height="80" x="0" y="0" viewBox="0 0 66 66" style="enable-background:new 0 0 512 512" xml:space="preserve" class=""><g><path d="M41.8 60.1H24.2c-.6 0-1-.4-1-1s.4-1 1-1h17.6c.6 0 1 .4 1 1s-.4 1-1 1zM17.5 36.6h-5.6c-.6 0-1-.4-1-1s.4-1 1-1h5.6c.6 0 1 .4 1 1s-.4 1-1 1z" fill="#ff1749" opacity="1" data-original="#000000" class=""></path><path d="M55.6 51.5c-.5 0-1-.4-1-1s.4-1 1-1l5.5-.1c1 0 1.8-.8 1.8-1.8V15.1c0-1-.8-1.8-1.8-1.8H4.8c-1 0-1.8.8-1.8 1.8v32.5c0 1 .8 1.8 1.8 1.8l40.4.1c.6 0 1 .5 1 1 0 .6-.4 1-1 1l-40.4-.1c-2.1 0-3.8-1.7-3.8-3.8V15.1c0-2.1 1.7-3.8 3.8-3.8h56.3c2.1 0 3.8 1.7 3.8 3.8v32.5c0 2.1-1.7 3.8-3.8 3.8z" fill="#ff1749" opacity="1" data-original="#000000" class=""></path><path d="M60.1 47.5h-3.9c-.6 0-1-.4-1-1s.4-1 1-1h2.9V17.2H6.9v28.3h37.2c.6 0 1 .4 1 1s-.4 1-1 1H5.9c-.6 0-1-.4-1-1V16.2c0-.6.4-1 1-1h54.2c.6 0 1 .4 1 1v30.3c0 .6-.4 1-1 1z" fill="#ff1749" opacity="1" data-original="#000000" class=""></path><path d="M55.7 65H45.3c-.6 0-1-.4-1-1V33.4c0-.6.4-1 1-1h10.4c.6 0 1 .4 1 1V64c0 .6-.4 1-1 1zm-9.4-2h8.4V34.4h-8.4z" fill="#ff1749" opacity="1" data-original="#000000" class=""></path><path d="M50.5 43.6c-1.7 0-3-1.3-3-3s1.3-3 3-3 3 1.3 3 3-1.3 3-3 3zm0-4c-.6 0-1 .4-1 1s.4 1 1 1 1-.4 1-1-.4-1-1-1zM48.8 49.2h-.2c-.6 0-1-.4-1-1s.4-1 1-1h.2c.6 0 1 .4 1 1s-.4 1-1 1zM52.3 49.2h-.2c-.6 0-1-.4-1-1s.4-1 1-1h.2c.6 0 1 .4 1 1s-.4 1-1 1zM48.8 52.8h-.2c-.6 0-1-.4-1-1s.4-1 1-1h.2c.6 0 1 .4 1 1s-.4 1-1 1zM52.3 52.8h-.2c-.6 0-1-.4-1-1s.4-1 1-1h.2c.6 0 1 .4 1 1s-.4 1-1 1zM48.8 56.4h-.2c-.6 0-1-.4-1-1s.4-1 1-1h.2c.6 0 1 .4 1 1s-.4 1-1 1zM52.3 56.4h-.2c-.6 0-1-.4-1-1s.4-1 1-1h.2c.6 0 1 .4 1 1s-.4 1-1 1zM48.8 60.1h-.2c-.6 0-1-.4-1-1s.4-1 1-1h.2c.6 0 1 .4 1 1s-.4 1-1 1zM52.3 60.1h-.2c-.6 0-1-.4-1-1s.4-1 1-1h.2c.6 0 1 .4 1 1s-.4 1-1 1zM37.9 60.1H28c-.6 0-1-.4-1-1v-8.6c0-.6.4-1 1-1h9.9c.6 0 1 .4 1 1v8.6c0 .6-.4 1-1 1zm-8.9-2h7.9v-6.6H29zM29.6 13.2c-.6 0-1-.4-1-1 0-3 2.3-5.3 5.2-5.3S39 9.3 39 12.2c0 .6-.4 1-1 1s-1-.4-1-1c0-1.7-1.5-3.2-3.2-3.2s-3.2 1.5-3.2 3.2c0 .6-.4 1-1 1z" fill="#ff1749" opacity="1" data-original="#000000" class=""></path><path d="M36.8 10.2c-.3 0-.5-.1-.7-.3-.4-.4-.4-1 0-1.4l7.2-7.2c.4-.4 1-.4 1.4 0s.4 1 0 1.4l-7.2 7.2c-.2.2-.4.3-.7.3zM30.9 10.1c-.3 0-.5-.1-.7-.3l-7.1-7.1c-.4-.4-.4-1 0-1.4s1-.4 1.4 0l7.1 7.1c.4.4.4 1 0 1.4-.2.2-.4.3-.7.3zM34.7 36.6c-.3 0-.5-.1-.7-.3-.7-.7-2-.7-2.7 0-.4.4-1 .4-1.4 0s-.4-1 0-1.4c1.5-1.5 4-1.5 5.5 0 .4.4.4 1 0 1.4-.2.2-.4.3-.7.3zM42.9 28.6c-.3 0-.5-.1-.7-.3-5.3-5.3-13.9-5.3-19.2 0-.4.4-1 .4-1.4 0s-.4-1 0-1.4c6.1-6.1 15.9-6.1 22 0 .4.4.4 1 0 1.4-.2.2-.4.3-.7.3z" fill="#ff1749" opacity="1" data-original="#000000" class=""></path><path d="M38.8 32.6c-.3 0-.5-.1-.7-.3-1.5-1.5-3.4-2.3-5.4-2.3s-4 .8-5.4 2.3c-.4.4-1 .4-1.4 0s-.4-1 0-1.4c1.8-1.8 4.3-2.8 6.9-2.8s5 1 6.9 2.8c.4.4.4 1 0 1.4-.4.2-.6.3-.9.3zM32.6 41h-.2c-.6 0-1-.4-1-1s.4-1 1-1h.2c.6 0 1 .4 1 1s-.4 1-1 1zM20.9 41.6h-9c-.6 0-1-.4-1-1s.4-1 1-1h9c.6 0 1 .4 1 1s-.4 1-1 1zM53.9 27.8h-3.8c-.6 0-1-.4-1-1s.4-1 1-1h3.8c.6 0 1 .4 1 1s-.4 1-1 1zM53.9 22.8h-6c-.6 0-1-.4-1-1s.4-1 1-1h6c.6 0 1 .4 1 1s-.4 1-1 1z" fill="#ff1749" opacity="1" data-original="#000000" class=""></path></g></svg>