<svg xmlns="http://www.w3.org/2000/svg" version="1.1" xmlns:xlink="http://www.w3.org/1999/xlink" width="80" height="80" x="0" y="0" viewBox="0 0 64 64" style="enable-background:new 0 0 512 512" xml:space="preserve" class=""><g><path d="M54.15 50.38H6.04c-2.15 0-3.89-1.75-3.89-3.9V15.47c0-2.15 1.75-3.9 3.89-3.9h29.37c.55 0 1 .45 1 1s-.45 1-1 1H6.04c-1.04 0-1.89.85-1.89 1.9v31.01c0 1.05.85 1.9 1.89 1.9h48.11c1.04 0 1.89-.85 1.89-1.9v-19.2c0-.55.45-1 1-1s1 .45 1 1v19.2a3.89 3.89 0 0 1-3.89 3.9z" fill="#ff1749" opacity="1" data-original="#000000" class=""></path><path d="M37.67 56.02H22.53c-.55 0-1-.45-1-1v-5.64c0-.55.45-1 1-1h15.14c.55 0 1 .45 1 1v5.64c0 .55-.45 1-1 1zm-14.14-2h13.14v-3.64H23.53z" fill="#ff1749" opacity="1" data-original="#000000" class=""></path><path d="M42.88 56.02H17.31c-.55 0-1-.45-1-1s.45-1 1-1h25.57c.55 0 1 .45 1 1s-.44 1-1 1zM14.32 44.85c-.55 0-1-.45-1-1v-4.54H8.71c-.39 0-.75-.23-.91-.59s-.1-.78.16-1.07l5.61-6.31a.997.997 0 0 1 1.74.66v11.85c.01.56-.43 1-.99 1zm-3.38-7.54h2.39v-2.68zM17.98 44.85c-.55 0-1-.45-1-1V32c0-.55.45-1 1-1s1 .45 1 1v11.85c0 .56-.45 1-1 1z" fill="#ff1749" opacity="1" data-original="#000000" class=""></path><path d="M23.37 44.85c-.27 0-.54-.11-.74-.33l-5.39-5.93a1 1 0 0 1 0-1.35l5.39-5.93a.997.997 0 1 1 1.48 1.34l-4.78 5.25 4.78 5.25c.37.41.34 1.04-.07 1.41-.19.21-.43.29-.67.29zM44.84 23.08c-.34 0-.69-.09-1-.28-.6-.36-.96-.99-.96-1.68v-5.99c0-.7.36-1.33.96-1.68.6-.36 1.33-.37 1.94-.03l5.46 2.99c.63.34 1.02 1 1.02 1.72 0 .71-.39 1.37-1.01 1.72l-5.46 2.99c-.31.16-.63.24-.95.24zm.04-7.87v5.91l5.4-3.03z" fill="#ff1749" opacity="1" data-original="#000000" class=""></path><path d="M35.41 31.65c-.16 0-.32-.04-.47-.12a.984.984 0 0 1-.53-.88V11.67c0-2.04 1.66-3.69 3.69-3.69h20.05c2.04 0 3.69 1.66 3.69 3.69v12.91c0 2.04-1.66 3.69-3.69 3.69H40.7l-4.73 3.2c-.16.12-.36.18-.56.18zm2.7-21.67c-.93 0-1.69.76-1.69 1.69v17.09l3.42-2.32c.17-.11.36-.17.56-.17h17.76c.93 0 1.69-.76 1.69-1.69V11.67c0-.93-.76-1.69-1.69-1.69z" fill="#ff1749" opacity="1" data-original="#000000" class=""></path></g></svg>