<svg xmlns="http://www.w3.org/2000/svg" version="1.1" xmlns:xlink="http://www.w3.org/1999/xlink" width="80" height="80" x="0" y="0" viewBox="0 0 512 512" style="enable-background:new 0 0 512 512" xml:space="preserve" class=""><g><path d="M496 351.763h-16.647V110.26c0-15.41-12.537-27.948-27.947-27.948H71.416c-15.411 0-27.948 12.538-27.948 27.948v109.807H16a8 8 0 0 0 0 16h27.468v47.642h-16.86a8 8 0 0 0 0 16h16.86v52.056H26.821a8 8 0 0 0-8 8v43.798a8 8 0 0 0 6.628 7.882L129.58 429.57c.453.078.912.118 1.372.118h260.917c.46 0 .919-.04 1.372-.118l104.131-18.127a8 8 0 0 0 6.628-7.882v-43.798a8 8 0 0 0-8-8zM59.468 110.26c0-6.588 5.36-11.948 11.948-11.948h379.989c6.588 0 11.947 5.36 11.947 11.948v241.504h-12.599V135.977c0-13.47-10.959-24.429-24.43-24.429H96.496c-13.471 0-24.43 10.959-24.43 24.429v84.089H59.468zm28.598 241.503v-52.056h76.477a8 8 0 0 0 0-16H88.066v-47.642h93.877a8 8 0 0 0 0-16H88.066v-84.089c0-4.648 3.781-8.429 8.43-8.429h329.828c4.648 0 8.43 3.781 8.43 8.429v215.787zm227.758 16-6.656 11.2h-95.515l-6.656-11.2zM59.468 236.066h12.599v47.642H59.468zm0 63.642h12.599v52.056H59.468zM488 396.834l-96.822 16.854H131.644l-96.822-16.854v-29.07h153.564l13.839 23.287a7.999 7.999 0 0 0 6.877 3.913H313.72a7.999 7.999 0 0 0 6.877-3.913l13.839-23.287H488zM340.218 261.415c-12.934 0-23.455 10.521-23.455 23.455 0 12.933 10.521 23.454 23.455 23.454 12.933 0 23.454-10.521 23.454-23.454 0-12.934-10.522-23.455-23.454-23.455zm0 30.909c-4.11 0-7.455-3.344-7.455-7.454s3.345-7.455 7.455-7.455 7.454 3.345 7.454 7.455-3.344 7.454-7.454 7.454zm33.241-42.987a8.002 8.002 0 0 1-5.905 13.397 7.975 7.975 0 0 1-5.908-2.604c-5.768-6.313-13.378-9.79-21.429-9.79s-15.661 3.477-21.429 9.79a8 8 0 0 1-11.813-10.793c8.836-9.671 20.642-14.997 33.241-14.997s24.407 5.326 33.243 14.997zm35.347-38.687a8 8 0 0 1-11.813 10.792c-15.209-16.646-35.373-25.813-56.775-25.813s-41.566 9.167-56.775 25.813a8 8 0 0 1-11.813-10.793c18.278-20.003 42.637-31.02 68.588-31.02s50.309 11.017 68.588 31.021zm-17.673 19.343a8.002 8.002 0 0 1-.51 11.303 8.003 8.003 0 0 1-11.303-.51c-10.488-11.479-24.375-17.801-39.103-17.801-14.729 0-28.615 6.322-39.103 17.8a7.975 7.975 0 0 1-5.908 2.604 7.967 7.967 0 0 1-5.394-2.094 7.999 7.999 0 0 1-.511-11.302c13.556-14.838 31.638-23.009 50.915-23.009 19.278.001 37.36 8.172 50.917 23.009zm-164.306-25.748h-93.562a8 8 0 0 1 0-16h93.562a8 8 0 0 1 0 16zm30.571 55.641a8 8 0 0 1-8 8H111.463a8 8 0 0 1 0-16h137.936a8 8 0 0 1 7.999 8z" fill="#ff1749" opacity="1" data-original="#000000" class=""></path></g></svg>