<svg width="65" height="65" viewBox="0 0 65 65" fill="none" xmlns="http://www.w3.org/2000/svg">
<rect width="65" height="65" fill="#1E1E1E"/>
<g id="Expans Dasboard" clip-path="url(#clip0_0_1)">
<rect width="1920" height="1908" transform="translate(-1768 -719)" fill="#F0F2F3"/>
<g id="Group 1171275972">
<rect id="Rectangle 5506" x="-380" y="-32" width="472" height="996" rx="27.7427" fill="white"/>
</g>
<g id="bell-svgrepo-com 1" clip-path="url(#clip1_0_1)">
<path id="Vector" d="M51.1705 10.3016C50.4524 10.3016 49.7235 10.1509 49.0293 9.83203C47.7794 9.25782 46.8277 8.2314 46.3497 6.94168C45.8719 5.65197 45.9249 4.25319 46.4989 3.00321C47.0727 1.75335 48.0993 0.801585 49.3891 0.323606C50.6788 -0.154374 52.0775 -0.101434 53.3276 0.472649C55.9079 1.65763 57.0433 4.72102 55.8582 7.30147C54.9918 9.18762 53.1218 10.3016 51.1705 10.3016ZM51.1798 2.29862C50.8453 2.29862 50.5102 2.35816 50.1872 2.47775C49.4728 2.74257 48.9043 3.26956 48.5864 3.96184C48.2685 4.65424 48.2391 5.42904 48.5039 6.1434C48.7687 6.85777 49.2957 7.42614 49.988 7.74416C51.4169 8.40063 53.1141 7.77171 53.7704 6.34246C54.4266 4.9131 53.798 3.21636 52.3687 2.56014C51.9894 2.38622 51.5852 2.29862 51.1798 2.29862Z" fill="#F2B844"/>
<path id="Vector_2" d="M36.0717 57.93C35.6252 58.902 35.0126 59.7478 34.2841 60.4458C31.9089 62.7195 28.2958 63.4424 25.1254 61.9864C21.9549 60.5303 20.1485 57.3188 20.3255 54.0355C20.3803 53.028 20.6224 52.0124 21.0689 51.0401L36.0717 57.93Z" fill="#FCC447"/>
<g id="Group">
<path id="Vector_3" d="M36.0716 57.93C35.6251 58.902 35.0125 59.7478 34.2841 60.4458L20.3254 54.0354C20.3803 53.0279 20.6224 52.0123 21.0689 51.0399L36.0716 57.93Z" fill="#F2B844"/>
<path id="Vector_4" d="M25.2023 52.9384L21.069 51.0402C19.1665 55.1827 20.9828 60.084 25.1254 61.9865C25.8424 62.3158 26.5826 62.5313 27.3256 62.6449C24.6006 60.3064 23.6293 56.3639 25.2023 52.9384Z" fill="#F2B844"/>
</g>
<path id="Vector_5" d="M49.5085 8.78823C39.5878 4.23213 28.012 8.23255 21.765 21.8354L19.1682 27.4901C17.2431 31.6822 11.8192 34.9726 6.90221 37.2081C3.63431 38.6939 3.61336 43.3237 6.87555 44.8219L28.4173 54.7148L49.959 64.6075C53.2211 66.1056 56.7192 63.0723 55.7167 59.6257C54.2081 54.4394 53.1694 48.1811 55.0947 43.9888L57.6916 38.3341C63.9384 24.7314 59.4293 13.3442 49.5085 8.78823Z" fill="#FCC447"/>
<path id="Vector_6" d="M13.7912 40.3719C18.7082 38.1365 24.1321 34.8459 26.0572 30.6539L28.654 24.9991C34.159 13.0118 43.8021 8.48314 52.8042 10.694C51.7876 9.96799 50.6868 9.32941 49.5085 8.78834C39.5877 4.23211 28.012 8.23254 21.7651 21.8353L19.1683 27.4901C17.2432 31.6821 11.8194 34.9726 6.90234 37.2081C3.63443 38.6939 3.61348 43.3237 6.87568 44.8219C6.87568 44.8219 9.94427 46.2311 13.7647 47.9856C10.5024 46.4875 10.5234 41.8575 13.7912 40.3719Z" fill="#F2B844"/>
<circle id="Ellipse 1183" cx="58.75" cy="21.25" r="5" fill="#FF0000"/>
</g>
</g>
<defs>
<clipPath id="clip0_0_1">
<rect width="1920" height="1908" fill="white" transform="translate(-1768 -719)"/>
</clipPath>
<clipPath id="clip1_0_1">
<rect width="65" height="65" fill="white"/>
</clipPath>
</defs>
</svg>
