<svg width="39" height="38" viewBox="0 0 39 38" fill="none" xmlns="http://www.w3.org/2000/svg">
<rect width="39" height="38" fill="#1E1E1E"/>
<g id="Expans Dasboard" clip-path="url(#clip0_0_1)">
<rect width="1920" height="1908" transform="translate(-68 -677)" fill="#F0F2F3"/>
<rect id="Rectangle 5490" x="-68" y="-677" width="175.391" height="1360.61" fill="white"/>
<g id="Rectangle 5498">
<mask id="path-2-inside-1_0_1" fill="white">
<path d="M-68 -677H327V1231H-68V-677Z"/>
</mask>
<path d="M-68 -677H327V1231H-68V-677Z" fill="white"/>
<path d="M326 -677V1231H328V-677H326Z" fill="#B9B9B9" mask="url(#path-2-inside-1_0_1)"/>
</g>
<g id="Group 1171275937">
<g id="Group 1171275936">
<g id="Group 1171275935">
<g id="Frame 1321315191">
<g id="Frame 1321315190">
<g id="chat-round-call-svgrepo-com (1) 1">
<path id="Vector" d="M19.6474 34.6623C28.3199 34.6623 35.3504 27.6317 35.3504 18.9592C35.3504 10.2867 28.3199 3.25616 19.6474 3.25616C10.9748 3.25616 3.94434 10.2867 3.94434 18.9592C3.94434 21.4712 4.53417 23.8454 5.58289 25.951C5.86158 26.5105 5.95434 27.1501 5.79277 27.7539L4.85748 31.2495C4.45147 32.7669 5.83971 34.1551 7.35716 33.7491L10.8527 32.8139C11.4566 32.6523 12.0961 32.7451 12.6556 33.0236C14.7612 34.0725 17.1354 34.6623 19.6474 34.6623Z" fill="#A1A1AA"/>
<path id="Vector_2" fill-rule="evenodd" clip-rule="evenodd" d="M19.6481 10.755C18.9327 10.755 18.3526 11.335 18.3526 12.0505V25.8692C18.3526 26.5846 18.9327 27.1647 19.6481 27.1647C20.3636 27.1647 20.9436 26.5846 20.9436 25.8692V12.0505C20.9436 11.335 20.3636 10.755 19.6481 10.755Z" fill="white"/>
<path id="Vector_3" fill-rule="evenodd" clip-rule="evenodd" d="M12.7385 14.2097C12.023 14.2097 11.443 14.7897 11.443 15.5052V22.4145C11.443 23.1299 12.023 23.71 12.7385 23.71C13.454 23.71 14.034 23.1299 14.034 22.4145V15.5052C14.034 14.7897 13.454 14.2097 12.7385 14.2097Z" fill="white"/>
<path id="Vector_4" d="M25.2616 15.5052C25.2616 14.7897 25.8417 14.2097 26.5571 14.2097C27.2725 14.2097 27.8526 14.7897 27.8526 15.5052V22.4145C27.8526 23.1299 27.2725 23.71 26.5571 23.71C25.8417 23.71 25.2616 23.1299 25.2616 22.4145V15.5052Z" fill="white"/>
</g>
</g>
</g>
</g>
</g>
</g>
</g>
<defs>
<clipPath id="clip0_0_1">
<rect width="1920" height="1908" fill="white" transform="translate(-68 -677)"/>
</clipPath>
</defs>
</svg>
