<svg width="32" height="32" viewBox="0 0 32 32" fill="none" xmlns="http://www.w3.org/2000/svg">
<rect width="32" height="32" fill="#1E1E1E"/>
<g id="Expans Dasboard" clip-path="url(#clip0_0_1)">
<rect width="1920" height="1908" transform="translate(-1020 -443)" fill="#F0F2F3"/>
<g id="Group 1171275967">
<rect id="Rectangle 5494" x="-573.528" y="-258.308" width="894.879" height="561.219" rx="27.9213" fill="white"/>
<g id="Mask group">
<mask id="mask0_0_1" style="mask-type:alpha" maskUnits="userSpaceOnUse" x="-535" y="-214" width="821" height="325">
<rect id="Rectangle 5495" x="-534.438" y="-213.634" width="819.492" height="323.888" rx="27.9213" fill="#6E62E5"/>
</mask>
<g mask="url(#mask0_0_1)">
<rect id="Rectangle 5496" x="-666.404" y="-213.634" width="951.457" height="323.888" rx="27.9213" fill="#6156C9"/>
<path id="Vector 39" d="M-685.583 75.8232C-713.28 48.3527 -724.409 -187.722 -655.525 -246.88C-554.626 -333.532 -424.264 -184.502 -318.82 -130.197C-213.375 -75.8917 -106.904 0.489846 19.8869 -65.2596C86.6842 -99.8983 126.156 -130.621 174.646 -212.284C216.771 -283.228 253.073 -387.478 279.164 -293.607C300.036 -218.51 301.984 -42.3174 300.349 36.3916" stroke="white" stroke-opacity="0.12" stroke-width="1.39607" stroke-linecap="round"/>
<path id="Vector 47" d="M-685.085 87.079C-712.781 59.6084 -723.911 -176.466 -655.027 -235.624C-554.127 -322.277 -423.766 -173.246 -318.321 -118.941C-212.877 -64.636 -106.406 11.7456 20.3852 -54.0039C87.1824 -88.6425 126.654 -119.366 175.144 -201.028C217.27 -271.972 253.572 -376.222 279.662 -282.351C300.534 -207.254 302.482 -31.0617 300.847 47.6473" stroke="white" stroke-opacity="0.12" stroke-width="1.39607" stroke-linecap="round"/>
<path id="Vector 40" d="M-688.343 66.0983C-716.04 38.6277 -727.17 -197.447 -658.285 -256.605C-557.386 -343.257 -427.024 -194.227 -321.58 -139.922C-216.135 -85.6167 -109.664 -9.23513 17.1269 -74.9846C83.9241 -109.623 123.396 -140.346 171.886 -222.009C214.011 -292.953 250.313 -397.203 276.404 -303.332C297.276 -228.235 299.224 -52.0424 297.589 26.6666" stroke="white" stroke-opacity="0.12" stroke-width="1.39607" stroke-linecap="round"/>
<path id="Vector 41" d="M-691.101 56.3735C-718.798 28.9029 -729.928 -207.171 -661.044 -266.329C-560.144 -352.982 -429.783 -203.952 -324.338 -149.647C-218.894 -95.3415 -112.423 -18.9599 14.3683 -84.7094C81.1655 -119.348 120.637 -150.071 169.128 -231.734C211.253 -302.678 247.555 -406.927 273.645 -313.056C294.517 -237.96 296.465 -61.7672 294.83 16.9418" stroke="white" stroke-opacity="0.12" stroke-width="1.39607" stroke-linecap="round"/>
<path id="Vector 42" d="M-693.861 46.6485C-721.558 19.1779 -732.688 -216.896 -663.803 -276.054C-562.904 -362.707 -432.542 -213.677 -327.098 -159.372C-221.653 -105.066 -115.183 -28.6849 11.6087 -94.4343C78.406 -129.073 117.878 -159.796 166.368 -241.459C208.493 -312.402 244.795 -416.652 270.885 -322.781C291.758 -247.685 293.706 -71.4922 292.071 7.21683" stroke="white" stroke-opacity="0.12" stroke-width="1.39607" stroke-linecap="round"/>
<path id="Vector 43" d="M-696.621 36.9235C-724.317 9.45288 -735.447 -226.621 -666.563 -285.779C-565.663 -372.432 -435.302 -223.402 -329.857 -169.097C-224.413 -114.791 -117.942 -38.4099 8.84919 -104.159C75.6464 -138.798 115.118 -169.521 163.609 -251.184C205.734 -322.128 242.036 -426.377 268.126 -332.506C288.998 -257.41 290.946 -81.2172 289.311 -2.5082" stroke="white" stroke-opacity="0.12" stroke-width="1.39607" stroke-linecap="round"/>
<path id="Vector 44" d="M-699.38 27.199C-727.076 -0.27161 -738.206 -236.346 -669.322 -295.504C-568.422 -382.157 -438.061 -233.126 -332.616 -178.821C-227.172 -124.516 -120.701 -48.1344 6.09012 -113.884C72.8874 -148.523 112.359 -179.246 160.849 -260.908C202.975 -331.852 239.277 -436.102 265.367 -342.231C286.239 -267.134 288.187 -90.9417 286.552 -12.2327" stroke="white" stroke-opacity="0.12" stroke-width="1.39607" stroke-linecap="round"/>
<path id="Vector 45" d="M-702.14 17.4739C-729.836 -9.99665 -740.966 -246.071 -672.082 -305.229C-571.182 -391.882 -440.821 -242.851 -335.377 -188.546C-229.932 -134.241 -123.461 -57.8595 3.33011 -123.609C70.1274 -158.248 109.599 -188.971 158.089 -270.633C200.215 -341.577 236.517 -445.827 262.607 -351.956C283.479 -276.859 285.427 -100.667 283.792 -21.9577" stroke="white" stroke-opacity="0.12" stroke-width="1.39607" stroke-linecap="round"/>
<path id="Vector 46" d="M-704.898 7.7492C-732.595 -19.7214 -743.725 -255.796 -674.841 -314.954C-573.941 -401.606 -443.58 -252.576 -338.135 -198.271C-232.691 -143.966 -126.22 -67.5842 0.571509 -133.334C67.3688 -167.972 106.841 -198.696 155.331 -280.358C197.456 -351.302 233.758 -455.552 259.848 -361.681C280.721 -286.584 282.668 -110.391 281.033 -31.6825" stroke="white" stroke-opacity="0.12" stroke-width="1.39607" stroke-linecap="round"/>
</g>
</g>
<g id="Group 1171275943">
<g id="Group 1171275910">
<g id="Rectangle 80" filter="url(#filter0_b_0_1)">
<rect x="-45.8138" y="-41.9174" width="293.306" height="118.666" rx="11.1949" fill="white" fill-opacity="0.14"/>
<rect x="-45.2541" y="-41.3577" width="292.186" height="117.546" rx="10.6351" stroke="white" stroke-opacity="0.17" stroke-width="1.11949"/>
</g>
<g id="Frame 1321315186">
<g id="Group 865">
<rect id="Rectangle 84" x="-17.8267" y="-16.1693" width="66.0498" height="66.0498" rx="11.1949" fill="white" fill-opacity="0.24"/>
<g id="clock-1-svgrepo-com 1">
<path id="Vector" d="M15.757 29.3565C22.9702 29.3565 28.8177 23.509 28.8177 16.2958C28.8177 9.08258 22.9702 3.23511 15.757 3.23511C8.54379 3.23511 2.69632 9.08258 2.69632 16.2958C2.69632 23.509 8.54379 29.3565 15.757 29.3565Z" fill="white"/>
<path id="Vector_2" d="M20.6037 21.4289C20.4339 21.4289 20.2641 21.3897 20.1074 21.2852L16.0586 18.869C15.0529 18.2682 14.3085 16.9491 14.3085 15.7867V10.4318C14.3085 9.89633 14.7525 9.45227 15.288 9.45227C15.8235 9.45227 16.2676 9.89633 16.2676 10.4318V15.7867C16.2676 16.2569 16.6594 16.9491 17.0643 17.1842L21.1131 19.6004C21.5833 19.8747 21.7269 20.4755 21.4527 20.9457C21.2568 21.2591 20.9302 21.4289 20.6037 21.4289Z" fill="#9892DC"/>
</g>
</g>
</g>
</g>
</g>
</g>
</g>
<defs>
<filter id="filter0_b_0_1" x="-106.266" y="-102.37" width="414.211" height="239.57" filterUnits="userSpaceOnUse" color-interpolation-filters="sRGB">
<feFlood flood-opacity="0" result="BackgroundImageFix"/>
<feGaussianBlur in="BackgroundImageFix" stdDeviation="30.2262"/>
<feComposite in2="SourceAlpha" operator="in" result="effect1_backgroundBlur_0_1"/>
<feBlend mode="normal" in="SourceGraphic" in2="effect1_backgroundBlur_0_1" result="shape"/>
</filter>
<clipPath id="clip0_0_1">
<rect width="1920" height="1908" fill="white" transform="translate(-1020 -443)"/>
</clipPath>
</defs>
</svg>
