<svg width="40" height="40" viewBox="0 0 40 40" fill="none" xmlns="http://www.w3.org/2000/svg">
<rect width="40" height="40" fill="#1E1E1E"/>
<g id="Expans Dasboard" clip-path="url(#clip0_0_1)">
<rect width="1920" height="1908" transform="translate(-68 -767)" fill="#F0F2F3"/>
<rect id="Rectangle 5490" x="-68" y="-767" width="175.391" height="1360.61" fill="white"/>
<g id="Rectangle 5498">
<mask id="path-2-inside-1_0_1" fill="white">
<path d="M-68 -767H327V1141H-68V-767Z"/>
</mask>
<path d="M-68 -767H327V1141H-68V-767Z" fill="white"/>
<path d="M326 -767V1141H328V-767H326Z" fill="#B9B9B9" mask="url(#path-2-inside-1_0_1)"/>
</g>
<g id="Group 1171275937">
<g id="Group 1171275936">
<g id="Group 1171275935">
<g id="Frame 1321315191">
<g id="Frame 1321315190">
<g id="code-circle-svgrepo-com 1">
<path id="Vector" d="M19.6472 36.5895C28.5936 36.5895 35.8461 29.3369 35.8461 20.3906C35.8461 11.4441 28.5936 4.19162 19.6472 4.19162C10.7008 4.19162 3.44827 11.4441 3.44827 20.3906C3.44827 29.3369 10.7008 36.5895 19.6472 36.5895Z" fill="#A1A1AA"/>
<path id="Vector_2" d="M22.0578 11.3935C22.7059 11.5672 23.0905 12.2334 22.9168 12.8815L18.7242 28.5284C18.5505 29.1765 17.8843 29.5612 17.2362 29.3876C16.588 29.2138 16.2035 28.5477 16.3772 27.8996L20.5697 12.2526C20.7434 11.6045 21.4097 11.2198 22.0578 11.3935Z" fill="white"/>
<path id="Vector_3" d="M24.4575 14.6716C24.932 14.1972 25.7011 14.1972 26.1756 14.6716L26.5132 15.0091C27.5423 16.0382 28.4005 16.8964 28.9902 17.6693C29.6127 18.485 30.0492 19.347 30.0492 20.3904C30.0492 21.4337 29.6127 22.2957 28.9902 23.1115C28.4005 23.8843 27.5423 24.7425 26.5132 25.7716L26.1756 26.1091C25.7011 26.5835 24.932 26.5835 24.4575 26.1091C23.9831 25.6346 23.9831 24.8655 24.4575 24.391L24.7353 24.113C25.8396 23.0088 26.5796 22.2652 27.0584 21.6375C27.5159 21.038 27.6194 20.6889 27.6194 20.3904C27.6194 20.0918 27.5159 19.7427 27.0584 19.1432C26.5796 18.5155 25.8396 17.772 24.7353 16.6677L24.4575 16.3898C23.9831 15.9153 23.9831 15.1461 24.4575 14.6716Z" fill="white"/>
<path id="Vector_4" d="M13.1183 14.6716C13.5927 14.1972 14.3619 14.1972 14.8364 14.6716C15.3109 15.1461 15.3109 15.9153 14.8364 16.3898L14.5585 16.6677C13.4543 17.772 12.7144 18.5155 12.2355 19.1432C11.7779 19.7427 11.6745 20.0918 11.6745 20.3904C11.6745 20.6889 11.7779 21.038 12.2355 21.6375C12.7144 22.2652 13.4543 23.0088 14.5585 24.113L14.8364 24.391C15.3109 24.8655 15.3109 25.6346 14.8364 26.1091C14.3619 26.5835 13.5927 26.5835 13.1183 26.1091L12.7808 25.7716C11.7516 24.7425 10.8934 23.8843 10.3037 23.1115C9.68125 22.2957 9.24469 21.4337 9.24469 20.3904C9.24469 19.347 9.68125 18.485 10.3037 17.6693C10.8934 16.8964 11.7516 16.0382 12.7808 15.0091L13.1183 14.6716Z" fill="white"/>
</g>
</g>
</g>
</g>
</g>
</g>
</g>
<defs>
<clipPath id="clip0_0_1">
<rect width="1920" height="1908" fill="white" transform="translate(-68 -767)"/>
</clipPath>
</defs>
</svg>
