<svg width="28" height="28" viewBox="0 0 41 41" fill="none" xmlns="http://www.w3.org/2000/svg">
<rect width="41" height="41" fill="#1E1E1E"/>
<g id="Expans Dasboard" clip-path="url(#clip0_0_1)">
<rect width="1920" height="1908" transform="translate(-67 -292)" fill="#F0F2F3"/>
<rect id="Rectangle 5490" x="-67" y="-292" width="175.391" height="1360.61" fill="white"/>
<g id="Rectangle 5498">
<mask id="path-2-inside-1_0_1" fill="white">
<path d="M-67 -292H328V1616H-67V-292Z"/>
</mask>
<path d="M-67 -292H328V1616H-67V-292Z" fill="white"/>
<path d="M327 -292V1616H329V-292H327Z" fill="#B9B9B9" mask="url(#path-2-inside-1_0_1)"/>
</g>
<g id="Group 1171275937">
<g id="Group 1171275936">
<g id="Group 1171275935">
<rect id="Rectangle 5499" x="-9.86511" y="-14.2975" width="215.253" height="69.0934" rx="13.2872" fill="#007AFF" fill-opacity="0.1"/>
<g id="Frame 1321315191">
<g id="dashboard-svgrepo-com (1) 1">
<path id="secondary" d="M37.256 6.96194V11.9446C37.256 12.8256 36.906 13.6705 36.2831 14.2935C35.6601 14.9165 34.8152 15.2664 33.9342 15.2664H25.6297C24.7487 15.2664 23.9038 14.9165 23.2809 14.2935C22.6579 13.6705 22.3079 12.8256 22.3079 11.9446V6.96194C22.3079 6.08094 22.6579 5.23603 23.2809 4.61307C23.9038 3.99011 24.7487 3.64014 25.6297 3.64014H33.9342C34.8152 3.64014 35.6601 3.99011 36.2831 4.61307C36.906 5.23603 37.256 6.08094 37.256 6.96194ZM15.6643 25.2318H7.35982C6.47883 25.2318 5.63392 25.5818 5.01096 26.2048C4.388 26.8277 4.03802 27.6726 4.03802 28.5536V33.5363C4.03802 34.4173 4.388 35.2622 5.01096 35.8852C5.63392 36.5082 6.47883 36.8581 7.35982 36.8581H15.6643C16.5453 36.8581 17.3902 36.5082 18.0132 35.8852C18.6361 35.2622 18.9861 34.4173 18.9861 33.5363V28.5536C18.9861 27.6726 18.6361 26.8277 18.0132 26.2048C17.3902 25.5818 16.5453 25.2318 15.6643 25.2318Z" fill="#007AFF"/>
<path id="primary" d="M18.9861 6.96194V18.5882C18.9861 19.4692 18.6361 20.3141 18.0132 20.9371C17.3902 21.5601 16.5453 21.91 15.6643 21.91H7.35982C6.47883 21.91 5.63392 21.5601 5.01096 20.9371C4.388 20.3141 4.03802 19.4692 4.03802 18.5882V6.96194C4.03802 6.08094 4.388 5.23603 5.01096 4.61307C5.63392 3.99011 6.47883 3.64014 7.35982 3.64014H15.6643C16.5453 3.64014 17.3902 3.99011 18.0132 4.61307C18.6361 5.23603 18.9861 6.08094 18.9861 6.96194ZM33.9342 18.5882H25.6297C24.7487 18.5882 23.9038 18.9382 23.2809 19.5612C22.6579 20.1841 22.3079 21.029 22.3079 21.91V33.5363C22.3079 34.4173 22.6579 35.2622 23.2809 35.8852C23.9038 36.5082 24.7487 36.8581 25.6297 36.8581H33.9342C34.8152 36.8581 35.6601 36.5082 36.2831 35.8852C36.906 35.2622 37.256 34.4173 37.256 33.5363V21.91C37.256 21.029 36.906 20.1841 36.2831 19.5612C35.6601 18.9382 34.8152 18.5882 33.9342 18.5882Z" fill="#007AFF"/>
</g>
</g>
</g>
</g>
</g>
</g>
<defs>
<clipPath id="clip0_0_1">
<rect width="1920" height="1908" fill="white" transform="translate(-67 -292)"/>
</clipPath>
</defs>
</svg>
