<svg width="40" height="40" viewBox="0 0 40 40" fill="none" xmlns="http://www.w3.org/2000/svg">
<rect width="40" height="40" fill="#1E1E1E"/>
<g id="Expans Dasboard" clip-path="url(#clip0_0_1)">
<rect width="1920" height="1908" transform="translate(-68 -494)" fill="#F0F2F3"/>
<rect id="Rectangle 5490" x="-68" y="-494" width="175.391" height="1360.61" fill="white"/>
<g id="Rectangle 5498">
<mask id="path-2-inside-1_0_1" fill="white">
<path d="M-68 -494H327V1414H-68V-494Z"/>
</mask>
<path d="M-68 -494H327V1414H-68V-494Z" fill="white"/>
<path d="M326 -494V1414H328V-494H326Z" fill="#B9B9B9" mask="url(#path-2-inside-1_0_1)"/>
</g>
<g id="Group 1171275937">
<g id="Group 1171275936">
<g id="Group 1171275935">
<g id="Frame 1321315191">
<g id="Frame 1321315190">
<g id="documents-svgrepo-com (1) 1">
<path id="Vector" fill-rule="evenodd" clip-rule="evenodd" d="M9.71421 4.85816C8.28842 6.28395 8.28842 8.57872 8.28842 13.1683V26.1495C8.28842 30.739 8.28842 33.0337 9.71421 34.4595C11.14 35.8853 13.4348 35.8853 18.0243 35.8853H21.2696C25.8591 35.8853 28.1539 35.8853 29.5797 34.4595C31.0055 33.0337 31.0055 30.739 31.0055 26.1495V13.1683C31.0055 8.57872 31.0055 6.28395 29.5797 4.85816C28.1539 3.43237 25.8591 3.43237 21.2696 3.43237H18.0243C13.4348 3.43237 11.14 3.43237 9.71421 4.85816ZM13.562 27.7721C13.562 27.1 14.1069 26.5551 14.779 26.5551H19.647C20.3191 26.5551 20.8639 27.1 20.8639 27.7721C20.8639 28.4442 20.3191 28.9891 19.647 28.9891H14.779C14.1069 28.9891 13.562 28.4442 13.562 27.7721ZM14.779 20.0645C14.1069 20.0645 13.562 20.6094 13.562 21.2815C13.562 21.9536 14.1069 22.4985 14.779 22.4985H24.5149C25.187 22.4985 25.7319 21.9536 25.7319 21.2815C25.7319 20.6094 25.187 20.0645 24.5149 20.0645H14.779ZM13.562 14.7909C13.562 14.1188 14.1069 13.5739 14.779 13.5739H24.5149C25.187 13.5739 25.7319 14.1188 25.7319 14.7909C25.7319 15.463 25.187 16.0079 24.5149 16.0079H14.779C14.1069 16.0079 13.562 15.463 13.562 14.7909Z" fill="#A1A1AA"/>
<path id="Vector_2" opacity="0.2" d="M8.67024 6.77197C8.28851 8.20523 8.28851 10.21 8.28851 13.168V26.1493C8.28851 29.1074 8.28851 31.1122 8.67027 32.5455L8.28851 32.5164C6.70628 32.3608 5.64127 32.009 4.84635 31.2141C3.42056 29.7882 3.42056 27.4935 3.42056 22.904V16.4134C3.42056 11.8239 3.42056 9.5291 4.84635 8.10332C5.64127 7.3084 6.70628 6.95668 8.28851 6.80103L8.67024 6.77197Z" fill="#A1A1AA"/>
<path id="Vector_3" opacity="0.2" d="M30.6237 32.5455C31.0055 31.1122 31.0055 29.1074 31.0055 26.1493V13.168C31.0055 10.21 31.0055 8.20523 30.6238 6.77197L31.0055 6.80103C32.5877 6.95668 33.6528 7.3084 34.4476 8.10332C35.8734 9.5291 35.8734 11.8239 35.8734 16.4134V22.904C35.8734 27.4935 35.8734 29.7882 34.4476 31.2141C33.6528 32.009 32.5877 32.3608 31.0055 32.5164L30.6237 32.5455Z" fill="#A1A1AA"/>
</g>
</g>
</g>
</g>
</g>
</g>
</g>
<defs>
<clipPath id="clip0_0_1">
<rect width="1920" height="1908" fill="white" transform="translate(-68 -494)"/>
</clipPath>
</defs>
</svg>
