<svg width="29" height="29" viewBox="0 0 29 29" fill="none" xmlns="http://www.w3.org/2000/svg">
<rect width="29" height="29" fill="#1E1E1E"/>
<g id="Expans Dasboard" clip-path="url(#clip0_0_1)">
<rect width="1920" height="1908" transform="translate(-72 -1146)" fill="#F0F2F3"/>
<rect id="Rectangle 5490" x="-72" y="-1146" width="175.391" height="1360.61" fill="white"/>
<g id="Rectangle 5498">
<mask id="path-2-inside-1_0_1" fill="white">
<path d="M-72 -1146H323V762H-72V-1146Z"/>
</mask>
<path d="M-72 -1146H323V762H-72V-1146Z" fill="white"/>
<path d="M322 -1146V762H324V-1146H322Z" fill="#B9B9B9" mask="url(#path-2-inside-1_0_1)"/>
</g>
<g id="Group 1171275937">
<g id="Group 1171275936">
<g id="Group 1171275935">
<g id="Group 1171275933">
<g id="Group 1171275932">
<g id="Frame 1321315189">
<g id="fi_1660165" clip-path="url(#clip1_0_1)">
<path id="Vector" d="M28.3185 18.9979C28.3185 15.5353 26.3321 12.4451 23.3571 10.9419C23.2647 17.5809 17.8821 22.9635 11.2431 23.0559C12.7463 26.0309 15.8365 28.0173 19.2991 28.0173C20.9225 28.0173 22.5013 27.585 23.8884 26.7635L28.2792 27.978L27.0647 23.5872C27.8862 22.2001 28.3185 20.6213 28.3185 18.9979Z" fill="#A1A1AA"/>
<path id="Vector_2" d="M21.7241 10.7687C21.7241 4.8937 16.9447 0.114243 11.0697 0.114243C5.19477 0.114243 0.415314 4.8937 0.415314 10.7687C0.415314 12.6833 0.924958 14.5476 1.89273 16.1842L0.454484 21.3837L5.65417 19.9457C7.29082 20.9134 9.15505 21.4231 11.0697 21.4231C16.9447 21.4231 21.7241 16.6436 21.7241 10.7687ZM9.43478 8.28898H7.79983C7.79983 6.48586 9.2666 5.01909 11.0697 5.01909C12.8729 5.01909 14.3396 6.48586 14.3396 8.28898C14.3396 9.20417 13.9522 10.0838 13.2763 10.702L11.8872 11.9734V13.2483H10.2523V11.2534L12.1725 9.49582C12.5156 9.18182 12.7047 8.75328 12.7047 8.28898C12.7047 7.38742 11.9713 6.65404 11.0697 6.65404C10.1682 6.65404 9.43478 7.38742 9.43478 8.28898ZM10.2523 14.8833H11.8872V16.5182H10.2523V14.8833Z" fill="#A1A1AA"/>
</g>
</g>
</g>
</g>
</g>
</g>
</g>
</g>
<defs>
<clipPath id="clip0_0_1">
<rect width="1920" height="1908" fill="white" transform="translate(-72 -1146)"/>
</clipPath>
<clipPath id="clip1_0_1">
<rect width="27.9031" height="27.9031" fill="white" transform="translate(0.415314 0.114243)"/>
</clipPath>
</defs>
</svg>
