<svg width="39" height="38" viewBox="0 0 39 38" fill="none" xmlns="http://www.w3.org/2000/svg">
<rect width="39" height="38" fill="#1E1E1E"/>
<g id="Expans Dasboard" clip-path="url(#clip0_0_1)">
<rect width="1920" height="1908" transform="translate(-68 -586)" fill="#F0F2F3"/>
<rect id="Rectangle 5490" x="-68" y="-586" width="175.391" height="1360.61" fill="white"/>
<g id="Rectangle 5498">
<mask id="path-2-inside-1_0_1" fill="white">
<path d="M-68 -586H327V1322H-68V-586Z"/>
</mask>
<path d="M-68 -586H327V1322H-68V-586Z" fill="white"/>
<path d="M326 -586V1322H328V-586H326Z" fill="#B9B9B9" mask="url(#path-2-inside-1_0_1)"/>
</g>
<g id="Group 1171275937">
<g id="Group 1171275936">
<g id="Group 1171275935">
<g id="Frame 1321315191">
<g id="Frame 1321315190">
<g id="Frame" clip-path="url(#clip1_0_1)">
<path id="Vector" d="M33.7799 28.5449C33.78 29.7465 33.3209 30.9028 32.4965 31.777C31.6722 32.6513 30.5449 33.1775 29.3454 33.248L29.069 33.2558H27.4987C26.2971 33.2559 25.1408 32.7968 24.2666 31.9724C23.3923 31.1481 22.8661 30.0208 22.7956 28.8213L22.7878 28.5449V23.834C22.7877 22.6324 23.2468 21.4762 24.0711 20.6019C24.8955 19.7276 26.0228 19.2014 27.2223 19.1309L27.4987 19.1231H29.069C29.6202 19.1231 30.1494 19.2173 30.6393 19.3916V19.1231C30.6407 16.2395 29.5089 13.4708 27.488 11.4139C25.467 9.35704 22.7188 8.17664 19.8356 8.1272C16.9525 8.07776 14.1653 9.16324 12.075 11.1496C9.98477 13.136 8.75876 15.8643 8.6613 18.7462L8.65501 19.1231V19.39C9.04759 19.2519 9.46529 19.1639 9.89713 19.1341L10.2253 19.1231H11.7956C12.9972 19.123 14.1535 19.5821 15.0277 20.4065C15.902 21.2308 16.4282 22.3581 16.4987 23.5576L16.5065 23.834V28.5449C16.5066 29.7465 16.0475 30.9028 15.2232 31.777C14.3988 32.6513 13.2715 33.1775 12.072 33.248L11.7956 33.2558H10.2253C9.02371 33.2559 7.86748 32.7968 6.99322 31.9724C6.11896 31.1481 5.59275 30.0208 5.52226 28.8213L5.5144 28.5449V19.1231C5.51576 15.4118 6.97692 11.8499 9.58229 9.20688C12.1877 6.56382 15.7282 5.05166 19.4391 4.99702C23.15 4.94237 26.7334 6.34962 29.4155 8.91483C32.0976 11.48 33.663 14.9973 33.7736 18.707L33.7799 19.1231V28.5449Z" fill="#A1A1AA"/>
</g>
</g>
</g>
</g>
</g>
</g>
</g>
<defs>
<clipPath id="clip0_0_1">
<rect width="1920" height="1908" fill="white" transform="translate(-68 -586)"/>
</clipPath>
<clipPath id="clip1_0_1">
<rect width="37.6873" height="37.6873" fill="white" transform="translate(0.803345 0.279419)"/>
</clipPath>
</defs>
</svg>
