<svg width="123" height="121" viewBox="0 0 123 121" fill="none" xmlns="http://www.w3.org/2000/svg">
<g filter="url(#filter0_d_0_478)">
<rect x="36.1947" y="31.6971" width="51.1542" height="49.0663" rx="10.4396" fill="#007AFF"/>
</g>
<rect width="24.3237" height="24.3237" transform="translate(50 44)" fill="#007AFF"/>
<path opacity="0.4" d="M65.6888 47.0405H57.6215C54.125 47.0405 52.027 49.1283 52.027 52.6349V60.6922C52.027 64.209 54.125 66.2967 57.6215 66.2967H65.6787C69.1854 66.2967 71.2731 64.209 71.2731 60.7023V52.6349C71.2833 49.1283 69.1854 47.0405 65.6888 47.0405Z" fill="white"/>
<path d="M71.3031 47.0201C69.4889 45.1958 67.7153 45.1553 65.8505 47.0201L64.7053 48.1552C64.6039 48.2565 64.5735 48.3984 64.6141 48.5302C65.3235 51.0132 67.3099 52.9996 69.793 53.7091C69.8234 53.7192 69.874 53.7192 69.9045 53.7192C70.0058 53.7192 70.1072 53.6787 70.1781 53.6077L71.3031 52.4726C72.2253 51.5504 72.6814 50.6686 72.6814 49.7666C72.6814 48.8545 72.2253 47.9525 71.3031 47.0201Z" fill="white"/>
<path d="M68.0998 54.5604C67.8262 54.4286 67.5627 54.2969 67.3194 54.1448C67.1167 54.0233 66.914 53.8915 66.7215 53.7496C66.5593 53.6483 66.3769 53.4962 66.1945 53.3442C66.1742 53.3341 66.1134 53.2834 66.0323 53.2023C65.7181 52.949 65.3837 52.6044 65.0695 52.2294C65.0492 52.2091 64.9884 52.1483 64.9377 52.0571C64.8364 51.9456 64.6844 51.753 64.5526 51.5402C64.4411 51.3983 64.3094 51.1956 64.1878 50.9828C64.0357 50.7294 63.904 50.4761 63.7824 50.2126C63.6506 49.9288 63.5493 49.6653 63.4581 49.4119L58.0055 54.8644C57.6508 55.2191 57.3062 55.888 57.2353 56.3846L56.7995 59.4048C56.7083 60.0433 56.8805 60.6413 57.2758 61.0365C57.6103 61.371 58.0663 61.5433 58.5731 61.5433C58.6846 61.5433 58.796 61.5332 58.9075 61.523L61.9176 61.0974C62.4142 61.0264 63.0831 60.692 63.4378 60.3271L68.8903 54.8745C68.637 54.7935 68.3836 54.682 68.0998 54.5604Z" fill="white"/>
<defs>
<filter id="filter0_d_0_478" x="0.699936" y="0.378232" width="122.144" height="120.056" filterUnits="userSpaceOnUse" color-interpolation-filters="sRGB">
<feFlood flood-opacity="0" result="BackgroundImageFix"/>
<feColorMatrix in="SourceAlpha" type="matrix" values="0 0 0 0 0 0 0 0 0 0 0 0 0 0 0 0 0 0 127 0" result="hardAlpha"/>
<feOffset dy="4.17585"/>
<feGaussianBlur stdDeviation="17.7474"/>
<feComposite in2="hardAlpha" operator="out"/>
<feColorMatrix type="matrix" values="0 0 0 0 0 0 0 0 0 0 0 0 0 0 0 0 0 0 0.08 0"/>
<feBlend mode="normal" in2="BackgroundImageFix" result="effect1_dropShadow_0_478"/>
<feBlend mode="normal" in="SourceGraphic" in2="effect1_dropShadow_0_478" result="shape"/>
</filter>
</defs>
</svg>
