<svg width="24" height="29" viewBox="0 0 24 29" fill="none" xmlns="http://www.w3.org/2000/svg">
<rect width="24" height="29" fill="#1E1E1E"/>
<g id="Expans Dasboard" clip-path="url(#clip0_0_1)">
<rect width="1920" height="1908" transform="translate(-74 -1227)" fill="#F0F2F3"/>
<rect id="Rectangle 5490" x="-74" y="-1227" width="175.391" height="1360.61" fill="white"/>
<g id="Rectangle 5498">
<mask id="path-2-inside-1_0_1" fill="white">
<path d="M-74 -1227H321V681H-74V-1227Z"/>
</mask>
<path d="M-74 -1227H321V681H-74V-1227Z" fill="white"/>
<path d="M320 -1227V681H322V-1227H320Z" fill="#B9B9B9" mask="url(#path-2-inside-1_0_1)"/>
</g>
<g id="Group 1171275937">
<g id="Group 1171275936">
<g id="Group 1171275935">
<g id="Group 1171275933">
<g id="Group 1171275932">
<g id="Frame 1321315189">
<g id="Group">
<path id="Vector 48" d="M9.5343 22.7544H6.2125L3.55506 21.4257H2.22634V20.097L1.56198 18.1039C1.78343 17.4395 2.35921 16.1108 2.8907 16.1108C3.42219 16.1108 3.11215 15.6679 2.8907 15.4464L4.21942 12.1246L4.88378 8.80285V5.48105L6.87686 3.48797L8.86994 2.82361L10.863 1.49489L12.8561 0.830528L16.8423 2.82361L18.8353 4.15233C19.0568 4.81669 19.6326 6.14541 20.1641 6.14541C20.6955 6.14541 20.3855 8.35994 20.1641 9.46721L20.8284 12.1246V14.7821C21.2713 15.225 22.1571 16.2437 22.1571 16.7752C22.1571 17.3067 22.6 18.3253 22.8215 18.7682L21.4928 20.7613L20.8284 22.09L18.171 22.7544H16.8423L14.8492 23.4188H12.8561H10.863L9.5343 22.7544Z" fill="#A1A1AA"/>
<path id="Vector" fill-rule="evenodd" clip-rule="evenodd" d="M12.3668 2.17215C8.42491 2.17215 5.22943 5.36765 5.22943 9.3095V12.1079C5.22943 13.0612 4.92181 13.9111 4.55547 14.645C4.29878 15.1592 3.97732 15.6803 3.69006 16.1458C3.58209 16.3208 3.47892 16.488 3.38587 16.6441C3.07974 17.1573 2.9036 17.7571 2.9036 18.4009C2.9036 20.0675 4.08887 21.4623 5.69319 21.6847C7.79362 21.9759 10.3715 22.2617 12.3668 22.2617C14.3621 22.2617 16.94 21.9759 19.0404 21.6847C20.6447 21.4623 21.8299 20.0675 21.8299 18.4009C21.8299 17.7571 21.6538 17.1573 21.3477 16.6441C21.2546 16.488 21.1514 16.3208 21.0435 16.1458C20.7562 15.6803 20.4347 15.1592 20.1781 14.645C19.8118 13.9111 19.5042 13.0613 19.5042 12.1079V9.3095C19.5042 5.36765 16.3086 2.17215 12.3668 2.17215ZM3.22341 9.3095C3.22341 4.25976 7.31703 0.166138 12.3668 0.166138C17.4164 0.166138 21.5102 4.25976 21.5102 9.3095V12.1079C21.5102 12.6262 21.6767 13.1556 21.9729 13.749C22.187 14.178 22.4327 14.5759 22.7006 15.0098C22.8197 15.203 22.9433 15.4033 23.0706 15.6166C23.5569 16.432 23.836 17.3854 23.836 18.4009C23.836 21.0217 21.9582 23.3054 19.3159 23.6717C17.1991 23.9652 14.5075 24.2677 12.3668 24.2677C10.2261 24.2677 7.53439 23.9652 5.41767 23.6717C2.77536 23.3054 0.897583 21.0217 0.897583 18.4009C0.897583 17.3854 1.17669 16.432 1.66296 15.6166C1.79018 15.4033 1.91379 15.203 2.033 15.0098C2.3009 14.5759 2.54653 14.178 2.76065 13.749C3.05688 13.1556 3.22341 12.6262 3.22341 12.1079V9.3095Z" fill="#A1A1AA"/>
<path id="Vector_2" fill-rule="evenodd" clip-rule="evenodd" d="M15.829 25.5215C15.3676 25.2149 14.7451 25.3402 14.4384 25.8014C13.9914 26.4737 13.23 26.9133 12.3664 26.9133C11.5027 26.9133 10.7414 26.4737 10.2943 25.8014C9.98763 25.3402 9.36506 25.2149 8.90377 25.5215C8.44248 25.8283 8.31717 26.4509 8.62387 26.9121C9.42689 28.1199 10.803 28.9193 12.3664 28.9193C13.9297 28.9193 15.3058 28.1199 16.1089 26.9121C16.4156 26.4509 16.2903 25.8283 15.829 25.5215Z" fill="#A1A1AA"/>
</g>
</g>
</g>
</g>
</g>
</g>
</g>
</g>
<defs>
<clipPath id="clip0_0_1">
<rect width="1920" height="1908" fill="white" transform="translate(-74 -1227)"/>
</clipPath>
</defs>
</svg>
