<svg width="30" height="30" viewBox="0 0 30 30" fill="none" xmlns="http://www.w3.org/2000/svg">
<path d="M11.3806 8.83761V20.5182C11.3806 24.4279 13.8166 26.8639 17.7141 26.8639H20.8688C24.7663 26.8639 27.2023 24.4279 27.2023 20.5303V8.83761C27.2145 4.94003 24.7785 2.50404 20.8809 2.50404H17.7141C13.8166 2.50404 11.3806 4.94003 11.3806 8.83761Z" fill="#A1A1AA"/>
<path d="M7.53419 9.95819L3.45391 14.0384C3.10069 14.3917 3.10069 14.9763 3.45391 15.3295L7.53419 19.4098C7.8874 19.763 8.47204 19.763 8.82526 19.4098C9.17848 19.0566 9.17848 18.4719 8.82526 18.1187L6.30401 15.5975H19.3244C19.8238 15.5975 20.2379 15.1834 20.2379 14.684C20.2379 14.1846 19.8238 13.7705 19.3244 13.7705H6.30401L8.82526 11.2493C9.00796 11.0666 9.09322 10.8351 9.09322 10.6037C9.09322 10.3723 9.00796 10.1287 8.82526 9.95819C8.47204 9.59279 7.89958 9.59279 7.53419 9.95819Z" fill="#A1A1AA"/>
<g clip-path="url(#clip0_0_95)">
<path d="M7.53394 9.95821L3.45366 14.0385C3.10045 14.3917 3.10045 14.9763 3.45366 15.3295L7.53394 19.4098C7.88716 19.763 8.4718 19.763 8.82501 19.4098C9.17823 19.0566 9.17823 18.472 8.82501 18.1187L6.30377 15.5975H19.3242C19.8236 15.5975 20.2377 15.1834 20.2377 14.684C20.2377 14.1846 19.8236 13.7705 19.3242 13.7705H6.30377L8.82501 11.2493C9.00771 11.0666 9.09297 10.8352 9.09297 10.6037C9.09297 10.3723 9.00771 10.1287 8.82501 9.95821C8.4718 9.59281 7.89934 9.59281 7.53394 9.95821Z" fill="white"/>
</g>
<defs>
<clipPath id="clip0_0_95">
<rect width="9.30104" height="9.30104" fill="white" transform="translate(11.3806 9.95854)"/>
</clipPath>
</defs>
</svg>
