<svg width="40" height="41" viewBox="0 0 40 41" fill="none" xmlns="http://www.w3.org/2000/svg">
<rect width="40" height="41" fill="#1E1E1E"/>
<g id="Expans Dasboard" clip-path="url(#clip0_0_1)">
<rect width="1920" height="1908" transform="translate(-1015 -300)" fill="#F0F2F3"/>
<g id="Group 1171275967">
<rect id="Rectangle 5494" x="-568.528" y="-115.308" width="894.879" height="561.219" rx="27.9213" fill="white"/>
<g id="Mask group">
<mask id="mask0_0_1" style="mask-type:alpha" maskUnits="userSpaceOnUse" x="-530" y="-71" width="821" height="325">
<rect id="Rectangle 5495" x="-529.438" y="-70.6336" width="819.492" height="323.888" rx="27.9213" fill="#6E62E5"/>
</mask>
<g mask="url(#mask0_0_1)">
<rect id="Rectangle 5496" x="-661.404" y="-70.6337" width="951.457" height="323.888" rx="27.9213" fill="#6156C9"/>
<path id="Vector 39" d="M-680.583 218.823C-708.28 191.353 -719.409 -44.7216 -650.525 -103.88C-549.626 -190.532 -419.264 -41.5019 -313.82 12.8032C-208.375 67.1083 -101.904 143.49 24.8869 77.7404C91.6842 43.1017 131.156 12.3785 179.646 -69.2842C221.771 -140.228 258.073 -244.478 284.164 -150.607C305.036 -75.5098 306.984 100.683 305.349 179.392" stroke="white" stroke-opacity="0.12" stroke-width="1.39607" stroke-linecap="round"/>
<path id="Vector 47" d="M-680.085 230.079C-707.781 202.608 -718.911 -33.4659 -650.027 -92.6239C-549.127 -179.277 -418.766 -30.2462 -313.321 24.0589C-207.877 78.364 -101.406 154.746 25.3852 88.9961C92.1824 54.3575 131.654 23.6343 180.144 -58.0285C222.27 -128.972 258.572 -233.222 284.662 -139.351C305.534 -64.2541 307.482 111.938 305.847 190.647" stroke="white" stroke-opacity="0.12" stroke-width="1.39607" stroke-linecap="round"/>
<path id="Vector 40" d="M-683.343 209.098C-711.04 181.628 -722.17 -54.4466 -653.285 -113.605C-552.386 -200.257 -422.024 -51.2269 -316.58 3.0782C-211.135 57.3833 -104.664 133.765 22.1269 68.0154C88.9241 33.3768 128.396 2.65354 176.886 -79.0092C219.011 -149.953 255.313 -254.203 281.404 -160.332C302.276 -85.2348 304.224 90.9576 302.589 169.667" stroke="white" stroke-opacity="0.12" stroke-width="1.39607" stroke-linecap="round"/>
<path id="Vector 41" d="M-686.101 199.373C-713.798 171.903 -724.928 -64.1714 -656.044 -123.329C-555.144 -209.982 -424.783 -60.9517 -319.338 -6.64659C-213.894 47.6585 -107.423 124.04 19.3683 58.2906C86.1655 23.652 125.637 -7.07125 174.128 -88.734C216.253 -159.678 252.555 -263.927 278.645 -170.056C299.517 -94.9596 301.465 81.2328 299.83 159.942" stroke="white" stroke-opacity="0.12" stroke-width="1.39607" stroke-linecap="round"/>
<path id="Vector 42" d="M-688.861 189.648C-716.558 162.178 -727.688 -73.8964 -658.803 -133.054C-557.904 -219.707 -427.542 -70.6767 -322.098 -16.3716C-216.653 37.9335 -110.183 114.315 16.6087 48.5657C83.406 13.927 122.878 -16.7962 171.368 -98.4589C213.493 -169.402 249.795 -273.652 275.885 -179.781C296.758 -104.685 298.706 71.5078 297.071 150.217" stroke="white" stroke-opacity="0.12" stroke-width="1.39607" stroke-linecap="round"/>
<path id="Vector 43" d="M-691.621 179.923C-719.317 152.453 -730.447 -83.6214 -661.563 -142.779C-560.663 -229.432 -430.302 -80.4017 -324.857 -26.0966C-219.413 28.2085 -112.942 104.59 13.8492 38.8406C80.6464 4.20197 120.118 -26.5213 168.609 -108.184C210.734 -179.128 247.036 -283.377 273.126 -189.506C293.998 -114.41 295.946 61.7828 294.311 140.492" stroke="white" stroke-opacity="0.12" stroke-width="1.39607" stroke-linecap="round"/>
<path id="Vector 44" d="M-694.38 170.199C-722.076 142.728 -733.206 -93.3459 -664.322 -152.504C-563.422 -239.157 -433.061 -90.1262 -327.616 -35.8211C-222.172 18.484 -115.701 94.8656 11.0901 29.1161C77.8874 -5.52252 117.359 -36.2458 165.849 -117.908C207.975 -188.852 244.277 -293.102 270.367 -199.231C291.239 -124.134 293.187 52.0583 291.552 130.767" stroke="white" stroke-opacity="0.12" stroke-width="1.39607" stroke-linecap="round"/>
<path id="Vector 45" d="M-697.14 160.474C-724.836 133.003 -735.966 -103.071 -667.082 -162.229C-566.182 -248.882 -435.821 -99.8512 -330.377 -45.5461C-224.932 8.75899 -118.461 85.1405 8.33011 19.3911C75.1274 -15.2476 114.599 -45.9708 163.089 -127.633C205.215 -198.577 241.517 -302.827 267.607 -208.956C288.479 -133.859 290.427 42.3333 288.792 121.042" stroke="white" stroke-opacity="0.12" stroke-width="1.39607" stroke-linecap="round"/>
<path id="Vector 46" d="M-699.898 150.749C-727.595 123.279 -738.725 -112.796 -669.841 -171.954C-568.941 -258.606 -438.58 -109.576 -333.135 -55.2709C-227.691 -0.965742 -121.22 75.4158 5.57151 9.66637C72.3688 -24.9723 111.841 -55.6955 160.331 -137.358C202.456 -208.302 238.758 -312.552 264.848 -218.681C285.721 -143.584 287.668 32.6085 286.033 111.318" stroke="white" stroke-opacity="0.12" stroke-width="1.39607" stroke-linecap="round"/>
</g>
</g>
<g id="Group 1171275943">
<g id="Group 1171275921">
<g id="Rectangle 80" filter="url(#filter0_b_0_1)">
<rect x="-40.8137" y="-37.1281" width="293.306" height="118.666" rx="11.1949" fill="white" fill-opacity="0.14"/>
<rect x="-40.2539" y="-36.5684" width="292.186" height="117.546" rx="10.6351" stroke="white" stroke-opacity="0.17" stroke-width="1.11949"/>
</g>
<g id="Group 1171275920">
<g id="Group 1171275919">
<rect id="Rectangle 84" x="-12.8265" y="-11.3799" width="66.0498" height="66.0498" rx="11.1949" fill="white" fill-opacity="0.24"/>
<g id="text-square-svgrepo-com 1">
<path id="Vector" fill-rule="evenodd" clip-rule="evenodd" d="M6.26328 6.5904C3.87241 8.98126 3.87241 12.8293 3.87241 20.5254C3.87241 28.2214 3.87241 32.0696 6.26328 34.4603C8.65414 36.8513 12.5022 36.8513 20.1983 36.8513C27.8943 36.8513 31.7425 36.8513 34.1332 34.4603C36.5241 32.0696 36.5241 28.2214 36.5241 20.5254C36.5241 12.8293 36.5241 8.98126 34.1332 6.5904C31.7425 4.19952 27.8943 4.19952 20.1983 4.19952C12.5022 4.19952 8.65414 4.19952 6.26328 6.5904ZM16.8547 11.138C16.1529 11.1379 15.4968 11.1378 14.9608 11.2179C14.3553 11.3083 13.7332 11.5222 13.236 12.0746C12.7554 12.6087 12.5857 13.245 12.5121 13.8529C12.4434 14.4211 12.4434 15.1254 12.4435 15.9207V16.8521C12.4435 17.5283 12.9917 18.0765 13.6679 18.0765C14.3442 18.0765 14.8924 17.5283 14.8924 16.8521V15.9904C14.8924 15.1041 14.8945 14.5503 14.9433 14.1471C14.9662 13.9579 14.9948 13.8489 15.0179 13.7864C15.0374 13.7337 15.0514 13.7183 15.056 13.7131L15.0573 13.7116C15.0595 13.7089 15.0612 13.7069 15.0759 13.7002C15.103 13.6878 15.1726 13.6623 15.3226 13.6399C15.6558 13.5901 16.1251 13.5869 16.9331 13.5869H18.9738V27.4639H16.1168C15.4406 27.4639 14.8924 28.0121 14.8924 28.6883C14.8924 29.3645 15.4406 29.9128 16.1168 29.9128H25.096C25.7722 29.9128 26.3205 29.3645 26.3205 28.6883C26.3205 28.0121 25.7722 27.4639 25.096 27.4639H21.4227V13.5869H23.4634C24.2714 13.5869 24.7408 13.5901 25.074 13.6399C25.2239 13.6623 25.2936 13.6878 25.3207 13.7002C25.3354 13.7069 25.337 13.7089 25.3393 13.7116C25.344 13.7167 25.359 13.7337 25.3786 13.7864C25.4018 13.8489 25.4304 13.9579 25.4532 14.1471C25.5021 14.5503 25.5042 15.1041 25.5042 15.9904V16.8521C25.5042 17.5283 26.0524 18.0765 26.7286 18.0765C27.4048 18.0765 27.9531 17.5283 27.9531 16.8521V15.9207C27.9531 15.1254 27.9532 14.4211 27.8845 13.8529C27.8109 13.245 27.6412 12.6087 27.1606 12.0746C26.6633 11.5222 26.0413 11.3083 25.4358 11.2179C24.8998 11.1378 24.2437 11.1379 23.5418 11.138H16.8547Z" fill="white"/>
</g>
</g>
</g>
</g>
</g>
</g>
</g>
<defs>
<filter id="filter0_b_0_1" x="-101.266" y="-97.5805" width="414.211" height="239.57" filterUnits="userSpaceOnUse" color-interpolation-filters="sRGB">
<feFlood flood-opacity="0" result="BackgroundImageFix"/>
<feGaussianBlur in="BackgroundImageFix" stdDeviation="30.2262"/>
<feComposite in2="SourceAlpha" operator="in" result="effect1_backgroundBlur_0_1"/>
<feBlend mode="normal" in="SourceGraphic" in2="effect1_backgroundBlur_0_1" result="shape"/>
</filter>
<clipPath id="clip0_0_1">
<rect width="1920" height="1908" fill="white" transform="translate(-1015 -300)"/>
</clipPath>
</defs>
</svg>
